
<svg xmlns="http://www.w3.org/2000/svg" xmlns:xlink="http://www.w3.org/1999/xlink" width="128px" height="128px" viewBox="0 0 128 128" version="1.1">
<g id="surface1">
<path style="fill-rule:nonzero;fill:rgb(15.686275%,14.901961%,16.078431%);fill-opacity:1;stroke-width:27.910587;stroke-linecap:butt;stroke-linejoin:miter;stroke:rgb(49.411765%,76.078431%,2.352941%);stroke-opacity:1;stroke-miterlimit:4;" d="M 83.21875 27.40625 L 428.78125 27.40625 C 459.609375 27.40625 484.59375 52.390625 484.59375 83.21875 L 484.59375 428.78125 C 484.59375 459.609375 459.609375 484.59375 428.78125 484.59375 L 83.21875 484.59375 C 52.390625 484.59375 27.40625 459.609375 27.40625 428.78125 L 27.40625 83.21875 C 27.40625 52.390625 52.390625 27.40625 83.21875 27.40625 Z M 83.21875 27.40625 " transform="matrix(0.25,0,0,0.25,0,0)"/>
<path style="fill-rule:nonzero;fill:rgb(49.411765%,76.078431%,2.352941%);fill-opacity:1;stroke-width:27.910587;stroke-linecap:butt;stroke-linejoin:miter;stroke:rgb(49.411765%,76.078431%,2.352941%);stroke-opacity:1;stroke-miterlimit:4;" d="M 83.21875 27.40625 C 52.296875 27.40625 27.40625 52.296875 27.40625 83.21875 L 27.40625 428.78125 C 27.40625 459.703125 52.296875 484.59375 83.21875 484.59375 L 242.984375 484.59375 L 242.984375 27.40625 Z M 83.21875 27.40625 " transform="matrix(0.25,0,0,0.25,0,0)"/>
<path style=" stroke:none;fill-rule:evenodd;fill:rgb(100%,100%,100%);fill-opacity:1;" d="M 64.148438 33.257812 L 64.148438 33.992188 C 64.148438 33.75 64.167969 33.511719 64.1875 33.273438 C 64.175781 33.269531 64.15625 33.261719 64.148438 33.257812 M 66.710938 40.046875 C 66.390625 40.050781 66.070312 40.054688 65.75 40.0625 C 65.214844 40.082031 64.679688 40.132812 64.148438 40.171875 C 64.144531 40.171875 64.144531 40.171875 64.140625 40.171875 C 46.015625 41.632812 30.34375 56.984375 30.34375 56.984375 C 30.34375 56.984375 39.214844 82.671875 64.148438 85.023438 C 65.34375 85.140625 66.582031 85.242188 67.851562 85.242188 C 81 85.242188 104.199219 78.507812 114.15625 70.171875 C 112.695312 68.695312 105.578125 65.3125 103.84375 63.921875 C 93.375 72.960938 82.550781 80.597656 67.601562 80.597656 C 66.402344 80.597656 65.253906 80.519531 64.148438 80.378906 C 45.851562 78.078125 39.601562 57.898438 39.601562 57.898438 C 39.601562 57.898438 47.78125 45.816406 64.148438 44.566406 C 64.671875 44.527344 65.207031 44.511719 65.75 44.496094 C 65.980469 44.488281 66.207031 44.480469 66.4375 44.480469 C 80.867188 44.433594 90.304688 57.207031 90.304688 57.207031 C 90.304688 57.207031 79.804688 71.808594 68.546875 71.808594 C 66.925781 71.808594 65.453125 71.515625 64.148438 71.074219 C 56.351562 68.453125 53.835938 59.386719 53.835938 59.386719 C 53.835938 59.386719 58.359375 53.972656 64.148438 54.667969 C 69.914062 55.363281 71.109375 57.925781 74.578125 63.707031 L 82.273438 57.167969 C 82.273438 57.167969 76.65625 49.800781 67.164062 49.800781 C 66.128906 49.800781 65.117188 49.875 64.148438 49.980469 C 53.121094 51.171875 46.5 58.511719 46.5 58.511719 C 46.5 58.511719 50.320312 72.898438 64.148438 75.367188 C 65.441406 75.59375 66.816406 75.734375 68.289062 75.734375 C 84.351562 75.734375 99.773438 56.992188 99.773438 56.992188 C 99.773438 56.992188 86.773438 39.921875 66.710938 40.054688 "/>
</g>
</svg>
