<?xml version="1.0" encoding="UTF-8"?>
<svg xmlns="http://www.w3.org/2000/svg" xmlns:xlink="http://www.w3.org/1999/xlink" width="16pt" height="16pt" viewBox="0 0 16 16" version="1.1">
<g id="surface1">
<path style="fill-rule:nonzero;fill:rgb(34.509804%,47.058824%,35.686275%);fill-opacity:1;stroke-width:18.73;stroke-linecap:butt;stroke-linejoin:miter;stroke:rgb(24.705882%,33.72549%,25.490196%);stroke-opacity:1;stroke-miterlimit:4;" d="M 71.240383 35.923077 L 425.990383 35.923077 C 452.240383 35.923077 473.615383 57.298077 473.615383 83.548077 L 473.615383 438.298077 C 473.615383 464.548077 452.240383 485.923077 425.990383 485.923077 L 71.240383 485.923077 C 44.990383 485.923077 23.615383 464.548077 23.615383 438.298077 L 23.615383 83.548077 C 23.615383 57.298077 44.990383 35.923077 71.240383 35.923077 Z M 71.240383 35.923077 " transform="matrix(0.03125,0,0,0.03125,0.230769,-0.153846)"/>
<path style=" stroke:none;fill-rule:nonzero;fill:rgb(100%,100%,100%);fill-opacity:1;" d="M 10.640625 3.703125 L 11.265625 3.703125 C 11.542969 3.703125 11.769531 3.921875 11.769531 4.1875 L 11.769531 4.464844 C 11.769531 4.734375 11.542969 4.949219 11.265625 4.949219 L 10.640625 4.949219 C 10.363281 4.949219 10.140625 4.734375 10.140625 4.464844 L 10.140625 4.1875 C 10.140625 3.921875 10.363281 3.703125 10.640625 3.703125 Z M 10.640625 3.703125 "/>
<path style=" stroke:none;fill-rule:nonzero;fill:rgb(100%,100%,100%);fill-opacity:1;" d="M 10.640625 5.515625 L 11.265625 5.515625 C 11.542969 5.515625 11.769531 5.734375 11.769531 6 L 11.769531 6.277344 C 11.769531 6.546875 11.542969 6.761719 11.265625 6.761719 L 10.640625 6.761719 C 10.363281 6.761719 10.140625 6.546875 10.140625 6.277344 L 10.140625 6 C 10.140625 5.734375 10.363281 5.515625 10.640625 5.515625 Z M 10.640625 5.515625 "/>
<path style=" stroke:none;fill-rule:nonzero;fill:rgb(100%,100%,100%);fill-opacity:1;" d="M 10.640625 7.453125 L 11.265625 7.453125 C 11.542969 7.453125 11.769531 7.671875 11.769531 7.9375 L 11.769531 8.214844 C 11.769531 8.484375 11.542969 8.699219 11.265625 8.699219 L 10.640625 8.699219 C 10.363281 8.699219 10.140625 8.484375 10.140625 8.214844 L 10.140625 7.9375 C 10.140625 7.671875 10.363281 7.453125 10.640625 7.453125 Z M 10.640625 7.453125 "/>
<path style=" stroke:none;fill-rule:nonzero;fill:rgb(100%,100%,100%);fill-opacity:1;" d="M 10.640625 9.265625 L 11.265625 9.265625 C 11.542969 9.265625 11.769531 9.484375 11.769531 9.75 L 11.769531 10.027344 C 11.769531 10.296875 11.542969 10.511719 11.265625 10.511719 L 10.640625 10.511719 C 10.363281 10.511719 10.140625 10.296875 10.140625 10.027344 L 10.140625 9.75 C 10.140625 9.484375 10.363281 9.265625 10.640625 9.265625 Z M 10.640625 9.265625 "/>
<path style=" stroke:none;fill-rule:nonzero;fill:rgb(100%,100%,100%);fill-opacity:1;" d="M 10.640625 11.140625 L 11.265625 11.140625 C 11.542969 11.140625 11.769531 11.359375 11.769531 11.625 L 11.769531 11.902344 C 11.769531 12.171875 11.542969 12.386719 11.265625 12.386719 L 10.640625 12.386719 C 10.363281 12.386719 10.140625 12.171875 10.140625 11.902344 L 10.140625 11.625 C 10.140625 11.359375 10.363281 11.140625 10.640625 11.140625 Z M 10.640625 11.140625 "/>
<path style=" stroke:none;fill-rule:nonzero;fill:rgb(100%,100%,100%);fill-opacity:1;" d="M 4.890625 3.703125 L 5.515625 3.703125 C 5.792969 3.703125 6.019531 3.921875 6.019531 4.1875 L 6.019531 4.464844 C 6.019531 4.734375 5.792969 4.949219 5.515625 4.949219 L 4.890625 4.949219 C 4.613281 4.949219 4.390625 4.734375 4.390625 4.464844 L 4.390625 4.1875 C 4.390625 3.921875 4.613281 3.703125 4.890625 3.703125 Z M 4.890625 3.703125 "/>
<path style=" stroke:none;fill-rule:nonzero;fill:rgb(100%,100%,100%);fill-opacity:1;" d="M 4.890625 5.515625 L 5.515625 5.515625 C 5.792969 5.515625 6.019531 5.734375 6.019531 6 L 6.019531 6.277344 C 6.019531 6.546875 5.792969 6.761719 5.515625 6.761719 L 4.890625 6.761719 C 4.613281 6.761719 4.390625 6.546875 4.390625 6.277344 L 4.390625 6 C 4.390625 5.734375 4.613281 5.515625 4.890625 5.515625 Z M 4.890625 5.515625 "/>
<path style=" stroke:none;fill-rule:nonzero;fill:rgb(100%,100%,100%);fill-opacity:1;" d="M 4.890625 7.453125 L 5.515625 7.453125 C 5.792969 7.453125 6.019531 7.671875 6.019531 7.9375 L 6.019531 8.214844 C 6.019531 8.484375 5.792969 8.699219 5.515625 8.699219 L 4.890625 8.699219 C 4.613281 8.699219 4.390625 8.484375 4.390625 8.214844 L 4.390625 7.9375 C 4.390625 7.671875 4.613281 7.453125 4.890625 7.453125 Z M 4.890625 7.453125 "/>
<path style=" stroke:none;fill-rule:nonzero;fill:rgb(100%,100%,100%);fill-opacity:1;" d="M 4.890625 9.265625 L 5.515625 9.265625 C 5.792969 9.265625 6.019531 9.484375 6.019531 9.75 L 6.019531 10.027344 C 6.019531 10.296875 5.792969 10.511719 5.515625 10.511719 L 4.890625 10.511719 C 4.613281 10.511719 4.390625 10.296875 4.390625 10.027344 L 4.390625 9.75 C 4.390625 9.484375 4.613281 9.265625 4.890625 9.265625 Z M 4.890625 9.265625 "/>
<path style=" stroke:none;fill-rule:nonzero;fill:rgb(100%,100%,100%);fill-opacity:1;" d="M 4.890625 11.140625 L 5.515625 11.140625 C 5.792969 11.140625 6.019531 11.359375 6.019531 11.625 L 6.019531 11.902344 C 6.019531 12.171875 5.792969 12.386719 5.515625 12.386719 L 4.890625 12.386719 C 4.613281 12.386719 4.390625 12.171875 4.390625 11.902344 L 4.390625 11.625 C 4.390625 11.359375 4.613281 11.140625 4.890625 11.140625 Z M 4.890625 11.140625 "/>
<path style=" stroke:none;fill-rule:nonzero;fill:rgb(28.627451%,28.627451%,29.803922%);fill-opacity:1;" d="M 10.179688 13.621094 C 10.109375 13.660156 9.996094 13.707031 9.925781 13.722656 C 9.75 13.761719 6.082031 13.726562 5.945312 13.683594 C 5.773438 13.628906 5.566406 13.445312 5.457031 13.25 C 5.375 13.097656 5.367188 13.039062 5.375 12.695312 C 5.378906 12.480469 5.382812 12.082031 5.382812 11.804688 C 5.378906 11.523438 5.378906 11.121094 5.382812 10.902344 C 5.382812 10.6875 5.382812 10.269531 5.382812 9.980469 C 5.382812 9.6875 5.382812 9.269531 5.382812 9.050781 C 5.382812 8.832031 5.382812 8.414062 5.382812 8.117188 C 5.382812 7.824219 5.382812 7.402344 5.382812 7.183594 C 5.382812 6.964844 5.386719 6.554688 5.394531 6.269531 C 5.402344 5.984375 5.394531 5.738281 5.382812 5.726562 C 5.371094 5.710938 5.363281 5.527344 5.371094 5.316406 C 5.390625 4.800781 5.390625 3.914062 5.371094 3.582031 C 5.347656 3.105469 5.5 2.792969 5.855469 2.597656 C 6.019531 2.507812 6.066406 2.507812 7.957031 2.488281 C 10.113281 2.46875 10.09375 2.464844 10.375 2.746094 C 10.574219 2.945312 10.640625 3.132812 10.640625 3.527344 C 10.640625 3.703125 10.632812 3.855469 10.621094 3.871094 C 10.597656 3.890625 10.601562 4.375 10.632812 5.316406 C 10.640625 5.527344 10.632812 5.710938 10.621094 5.726562 C 10.605469 5.738281 10.601562 5.988281 10.609375 6.277344 C 10.617188 6.570312 10.621094 6.972656 10.621094 7.179688 C 10.621094 7.382812 10.621094 7.796875 10.621094 8.101562 C 10.621094 8.40625 10.621094 8.824219 10.621094 9.027344 C 10.621094 9.234375 10.621094 9.652344 10.621094 9.957031 C 10.621094 10.261719 10.621094 10.679688 10.621094 10.886719 C 10.621094 12.121094 10.621094 12.449219 10.625 12.695312 C 10.636719 13.121094 10.472656 13.453125 10.179688 13.621094 Z M 10.179688 13.621094 "/>
<path style=" stroke:none;fill-rule:nonzero;fill:rgb(80%,80%,80%);fill-opacity:1;" d="M 10.019531 13.003906 C 10.019531 13.214844 9.847656 13.386719 9.636719 13.386719 C 9.425781 13.386719 9.253906 13.214844 9.253906 13.003906 C 9.253906 12.792969 9.425781 12.621094 9.636719 12.621094 C 9.847656 12.621094 10.019531 12.792969 10.019531 13.003906 Z M 10.019531 13.003906 "/>
<path style=" stroke:none;fill-rule:nonzero;fill:rgb(80%,80%,80%);fill-opacity:1;" d="M 7.789062 2.542969 L 8.222656 2.542969 L 8.222656 3.410156 L 7.789062 3.410156 Z M 7.789062 2.542969 "/>
</g>
</svg>