<?xml version="1.0" encoding="UTF-8"?>
<svg xmlns="http://www.w3.org/2000/svg" xmlns:xlink="http://www.w3.org/1999/xlink" width="24pt" height="24pt" viewBox="0 0 24 24" version="1.1">
<g id="surface1">
<path style="fill-rule:nonzero;fill:rgb(34.509804%,47.058824%,35.686275%);fill-opacity:1;stroke-width:18.73;stroke-linecap:butt;stroke-linejoin:miter;stroke:rgb(24.705882%,33.72549%,25.490196%);stroke-opacity:1;stroke-miterlimit:4;" d="M 71.28205 35.923077 L 425.948716 35.923077 C 452.28205 35.923077 473.615383 57.25641 473.615383 83.589743 L 473.615383 438.25641 C 473.615383 464.589743 452.28205 485.923077 425.948716 485.923077 L 71.28205 485.923077 C 44.948716 485.923077 23.615383 464.589743 23.615383 438.25641 L 23.615383 83.589743 C 23.615383 57.25641 44.948716 35.923077 71.28205 35.923077 Z M 71.28205 35.923077 " transform="matrix(0.046875,0,0,0.046875,0.346154,-0.230769)"/>
<path style=" stroke:none;fill-rule:nonzero;fill:rgb(100%,100%,100%);fill-opacity:1;" d="M 15.964844 5.554688 L 16.898438 5.554688 C 17.316406 5.554688 17.652344 5.878906 17.652344 6.28125 L 17.652344 6.699219 C 17.652344 7.097656 17.316406 7.425781 16.898438 7.425781 L 15.964844 7.425781 C 15.546875 7.425781 15.207031 7.097656 15.207031 6.699219 L 15.207031 6.28125 C 15.207031 5.878906 15.546875 5.554688 15.964844 5.554688 Z M 15.964844 5.554688 "/>
<path style=" stroke:none;fill-rule:nonzero;fill:rgb(100%,100%,100%);fill-opacity:1;" d="M 15.964844 8.273438 L 16.898438 8.273438 C 17.316406 8.273438 17.652344 8.597656 17.652344 9 L 17.652344 9.417969 C 17.652344 9.816406 17.316406 10.144531 16.898438 10.144531 L 15.964844 10.144531 C 15.546875 10.144531 15.207031 9.816406 15.207031 9.417969 L 15.207031 9 C 15.207031 8.597656 15.546875 8.273438 15.964844 8.273438 Z M 15.964844 8.273438 "/>
<path style=" stroke:none;fill-rule:nonzero;fill:rgb(100%,100%,100%);fill-opacity:1;" d="M 15.964844 11.179688 L 16.898438 11.179688 C 17.316406 11.179688 17.652344 11.503906 17.652344 11.90625 L 17.652344 12.324219 C 17.652344 12.722656 17.316406 13.050781 16.898438 13.050781 L 15.964844 13.050781 C 15.546875 13.050781 15.207031 12.722656 15.207031 12.324219 L 15.207031 11.90625 C 15.207031 11.503906 15.546875 11.179688 15.964844 11.179688 Z M 15.964844 11.179688 "/>
<path style=" stroke:none;fill-rule:nonzero;fill:rgb(100%,100%,100%);fill-opacity:1;" d="M 15.964844 13.898438 L 16.898438 13.898438 C 17.316406 13.898438 17.652344 14.222656 17.652344 14.625 L 17.652344 15.042969 C 17.652344 15.441406 17.316406 15.769531 16.898438 15.769531 L 15.964844 15.769531 C 15.546875 15.769531 15.207031 15.441406 15.207031 15.042969 L 15.207031 14.625 C 15.207031 14.222656 15.546875 13.898438 15.964844 13.898438 Z M 15.964844 13.898438 "/>
<path style=" stroke:none;fill-rule:nonzero;fill:rgb(100%,100%,100%);fill-opacity:1;" d="M 15.964844 16.710938 L 16.898438 16.710938 C 17.316406 16.710938 17.652344 17.035156 17.652344 17.4375 L 17.652344 17.855469 C 17.652344 18.253906 17.316406 18.582031 16.898438 18.582031 L 15.964844 18.582031 C 15.546875 18.582031 15.207031 18.253906 15.207031 17.855469 L 15.207031 17.4375 C 15.207031 17.035156 15.546875 16.710938 15.964844 16.710938 Z M 15.964844 16.710938 "/>
<path style=" stroke:none;fill-rule:nonzero;fill:rgb(100%,100%,100%);fill-opacity:1;" d="M 7.339844 5.554688 L 8.273438 5.554688 C 8.691406 5.554688 9.027344 5.878906 9.027344 6.28125 L 9.027344 6.699219 C 9.027344 7.097656 8.691406 7.425781 8.273438 7.425781 L 7.339844 7.425781 C 6.921875 7.425781 6.582031 7.097656 6.582031 6.699219 L 6.582031 6.28125 C 6.582031 5.878906 6.921875 5.554688 7.339844 5.554688 Z M 7.339844 5.554688 "/>
<path style=" stroke:none;fill-rule:nonzero;fill:rgb(100%,100%,100%);fill-opacity:1;" d="M 7.339844 8.273438 L 8.273438 8.273438 C 8.691406 8.273438 9.027344 8.597656 9.027344 9 L 9.027344 9.417969 C 9.027344 9.816406 8.691406 10.144531 8.273438 10.144531 L 7.339844 10.144531 C 6.921875 10.144531 6.582031 9.816406 6.582031 9.417969 L 6.582031 9 C 6.582031 8.597656 6.921875 8.273438 7.339844 8.273438 Z M 7.339844 8.273438 "/>
<path style=" stroke:none;fill-rule:nonzero;fill:rgb(100%,100%,100%);fill-opacity:1;" d="M 7.339844 11.179688 L 8.273438 11.179688 C 8.691406 11.179688 9.027344 11.503906 9.027344 11.90625 L 9.027344 12.324219 C 9.027344 12.722656 8.691406 13.050781 8.273438 13.050781 L 7.339844 13.050781 C 6.921875 13.050781 6.582031 12.722656 6.582031 12.324219 L 6.582031 11.90625 C 6.582031 11.503906 6.921875 11.179688 7.339844 11.179688 Z M 7.339844 11.179688 "/>
<path style=" stroke:none;fill-rule:nonzero;fill:rgb(100%,100%,100%);fill-opacity:1;" d="M 7.339844 13.898438 L 8.273438 13.898438 C 8.691406 13.898438 9.027344 14.222656 9.027344 14.625 L 9.027344 15.042969 C 9.027344 15.441406 8.691406 15.769531 8.273438 15.769531 L 7.339844 15.769531 C 6.921875 15.769531 6.582031 15.441406 6.582031 15.042969 L 6.582031 14.625 C 6.582031 14.222656 6.921875 13.898438 7.339844 13.898438 Z M 7.339844 13.898438 "/>
<path style=" stroke:none;fill-rule:nonzero;fill:rgb(100%,100%,100%);fill-opacity:1;" d="M 7.339844 16.710938 L 8.273438 16.710938 C 8.691406 16.710938 9.027344 17.035156 9.027344 17.4375 L 9.027344 17.855469 C 9.027344 18.253906 8.691406 18.582031 8.273438 18.582031 L 7.339844 18.582031 C 6.921875 18.582031 6.582031 18.253906 6.582031 17.855469 L 6.582031 17.4375 C 6.582031 17.035156 6.921875 16.710938 7.339844 16.710938 Z M 7.339844 16.710938 "/>
<path style=" stroke:none;fill-rule:nonzero;fill:rgb(28.627451%,28.627451%,29.803922%);fill-opacity:1;" d="M 15.273438 20.429688 C 15.164062 20.488281 14.992188 20.558594 14.886719 20.582031 C 14.628906 20.644531 9.121094 20.589844 8.917969 20.527344 C 8.65625 20.441406 8.347656 20.164062 8.1875 19.875 C 8.0625 19.648438 8.050781 19.5625 8.0625 19.042969 C 8.070312 18.722656 8.074219 18.121094 8.074219 17.703125 C 8.070312 17.289062 8.070312 16.679688 8.070312 16.355469 C 8.074219 16.03125 8.074219 15.40625 8.074219 14.96875 C 8.074219 14.53125 8.074219 13.90625 8.074219 13.578125 C 8.074219 13.25 8.074219 12.617188 8.074219 12.175781 C 8.074219 11.734375 8.074219 11.105469 8.074219 10.777344 C 8.074219 10.449219 8.082031 9.828125 8.09375 9.402344 C 8.101562 8.972656 8.09375 8.609375 8.074219 8.585938 C 8.054688 8.566406 8.046875 8.289062 8.058594 7.972656 C 8.082031 7.203125 8.082031 5.871094 8.058594 5.371094 C 8.019531 4.660156 8.253906 4.191406 8.785156 3.898438 C 9.027344 3.761719 9.101562 3.761719 11.9375 3.734375 C 15.171875 3.703125 15.140625 3.699219 15.5625 4.117188 C 15.863281 4.421875 15.960938 4.703125 15.960938 5.289062 C 15.964844 5.554688 15.949219 5.785156 15.929688 5.804688 C 15.894531 5.839844 15.902344 6.5625 15.949219 7.972656 C 15.957031 8.289062 15.949219 8.566406 15.929688 8.589844 C 15.910156 8.609375 15.902344 8.980469 15.914062 9.417969 C 15.921875 9.855469 15.929688 10.460938 15.929688 10.765625 C 15.929688 11.074219 15.929688 11.695312 15.929688 12.152344 C 15.929688 12.605469 15.929688 13.234375 15.929688 13.542969 C 15.929688 13.851562 15.929688 14.480469 15.929688 14.9375 C 15.929688 15.390625 15.929688 16.019531 15.929688 16.328125 C 15.929688 18.179688 15.929688 18.671875 15.941406 19.042969 C 15.953125 19.679688 15.710938 20.183594 15.273438 20.429688 Z M 15.273438 20.429688 "/>
<path style=" stroke:none;fill-rule:nonzero;fill:rgb(80%,80%,80%);fill-opacity:1;" d="M 15.027344 19.503906 C 15.027344 19.824219 14.769531 20.082031 14.453125 20.082031 C 14.136719 20.082031 13.878906 19.824219 13.878906 19.503906 C 13.878906 19.1875 14.136719 18.929688 14.453125 18.929688 C 14.769531 18.929688 15.027344 19.1875 15.027344 19.503906 Z M 15.027344 19.503906 "/>
<path style=" stroke:none;fill-rule:nonzero;fill:rgb(80%,80%,80%);fill-opacity:1;" d="M 11.683594 3.816406 L 12.332031 3.816406 L 12.332031 5.117188 L 11.683594 5.117188 Z M 11.683594 3.816406 "/>
</g>
</svg>