
<svg xmlns="http://www.w3.org/2000/svg" xmlns:xlink="http://www.w3.org/1999/xlink" width="128px" height="128px" viewBox="0 0 128 128" version="1.1">
<g id="surface1">
<path style="fill-rule:nonzero;fill:rgb(100%,100%,100%);fill-opacity:1;stroke-width:27.103765;stroke-linecap:butt;stroke-linejoin:miter;stroke:rgb(17.647059%,53.72549%,80.784314%);stroke-opacity:1;stroke-miterlimit:4;" d="M 88.21875 34 L 423.78125 34 C 453.71875 34 478 58.28125 478 88.21875 L 478 423.78125 C 478 453.71875 453.71875 478 423.78125 478 L 88.21875 478 C 58.28125 478 34 453.71875 34 423.78125 L 34 88.21875 C 34 58.28125 58.28125 34 88.21875 34 Z M 88.21875 34 " transform="matrix(0.25,0,0,0.25,0,0)"/>
<path style=" stroke:none;fill-rule:nonzero;fill:rgb(17.647059%,53.72549%,80.784314%);fill-opacity:1;" d="M 45.976562 98.070312 C 31.09375 96.640625 20.710938 90.960938 17.085938 82.265625 C 15.773438 79.117188 15.039062 74.578125 15.347656 71.554688 C 15.804688 67.054688 17.542969 62.671875 20.484375 58.566406 C 21.617188 56.992188 25.226562 53.054688 25.542969 53.054688 C 25.636719 53.054688 25.710938 53.496094 25.710938 54.03125 C 25.710938 54.886719 25.617188 55.121094 24.972656 55.898438 C 24.050781 57.003906 22.296875 59.695312 21.605469 61.070312 C 19.515625 65.226562 18.53125 70.15625 19.007812 74.054688 C 19.496094 78.0625 21.039062 81.285156 23.78125 84.027344 C 28.152344 88.40625 34.335938 90.761719 44.449219 91.894531 C 47.136719 92.195312 56.484375 92.191406 59.9375 91.890625 C 71.796875 90.84375 83.109375 87.835938 92.796875 83.148438 C 94.621094 82.265625 96.148438 81.542969 96.1875 81.542969 C 96.226562 81.542969 96.261719 83.089844 96.261719 84.980469 L 96.261719 88.421875 L 94.683594 89.214844 C 87.4375 92.859375 76.953125 95.949219 66.914062 97.398438 C 60.457031 98.328125 51.625 98.613281 45.976562 98.070312 Z M 76.308594 77.117188 C 74.957031 76.859375 73.152344 75.976562 72.222656 75.117188 C 70.332031 73.378906 69.410156 70.8125 69.410156 67.296875 C 69.414062 64.921875 69.667969 63.632812 70.488281 61.886719 C 72.828125 56.902344 80.203125 55.492188 83.976562 59.308594 C 85.734375 61.082031 86.703125 63.761719 86.703125 66.851562 L 86.703125 68.539062 L 80.695312 68.539062 C 77.390625 68.539062 74.550781 68.59375 74.386719 68.65625 C 73.972656 68.816406 74 69.960938 74.4375 70.933594 C 75.140625 72.480469 76.695312 73.386719 78.671875 73.402344 C 80.21875 73.414062 81.023438 73.195312 82.125 72.453125 C 82.664062 72.089844 83.191406 71.789062 83.296875 71.789062 C 83.53125 71.789062 85.9375 74.085938 85.9375 74.308594 C 85.9375 74.605469 84.710938 75.589844 83.597656 76.191406 C 81.707031 77.210938 78.757812 77.585938 76.308594 77.117188 Z M 81.96875 64.71875 C 81.75 61.671875 78.921875 60.066406 76.21875 61.453125 C 75.328125 61.910156 74.753906 62.523438 74.378906 63.421875 C 74.070312 64.160156 73.988281 65.132812 74.214844 65.359375 C 74.289062 65.429688 76.070312 65.46875 78.179688 65.4375 L 82.015625 65.386719 Z M 32.949219 76.878906 C 30.996094 76.179688 30.019531 74.984375 29.71875 72.917969 C 29.527344 71.574219 29.46875 58.238281 29.652344 57.753906 C 29.75 57.503906 30.144531 57.453125 32.042969 57.453125 L 34.316406 57.453125 L 34.316406 67.296875 C 34.316406 78.316406 34.445312 77.414062 32.949219 76.878906 Z M 39.183594 76.714844 C 39.132812 76.582031 39.113281 72.21875 39.140625 67.011719 L 39.191406 57.546875 L 44.640625 57.492188 C 49.226562 57.445312 50.277344 57.484375 51.28125 57.75 C 52.78125 58.148438 53.96875 59.148438 54.601562 60.550781 C 55.054688 61.554688 55.0625 61.613281 55.117188 69.257812 L 55.175781 76.953125 L 50.566406 76.953125 L 50.554688 70.117188 C 50.546875 62.753906 50.488281 62.277344 49.566406 61.59375 C 49.132812 61.273438 48.671875 61.191406 46.871094 61.121094 C 43.539062 60.992188 43.875 60.078125 43.875 69.21875 L 43.875 76.953125 L 41.574219 76.953125 C 39.910156 76.953125 39.25 76.886719 39.183594 76.714844 Z M 62.644531 76.59375 C 61.390625 76.15625 60.296875 75.125 59.707031 73.820312 L 59.265625 72.84375 L 59.265625 52.195312 L 63.9375 52.085938 L 63.992188 54.722656 L 64.046875 57.355469 L 67.679688 57.546875 L 67.679688 60.988281 L 66.054688 61.085938 C 65.160156 61.136719 64.320312 61.25 64.1875 61.335938 C 64.007812 61.453125 63.949219 62.746094 63.949219 66.726562 L 63.949219 71.960938 L 64.410156 72.5 C 64.820312 72.972656 65.035156 73.046875 66.273438 73.128906 L 67.679688 73.226562 L 67.679688 76.859375 L 65.671875 76.902344 C 64.121094 76.9375 63.429688 76.867188 62.644531 76.59375 Z M 93.292969 76.417969 C 91.867188 75.925781 91.183594 75.347656 90.585938 74.128906 L 90.046875 73.035156 L 90.046875 49.328125 L 94.730469 49.21875 L 94.730469 62.992188 C 94.730469 73.882812 94.679688 76.761719 94.492188 76.757812 C 94.359375 76.753906 93.820312 76.601562 93.292969 76.417969 Z M 98.554688 74.378906 L 98.554688 72 L 100.039062 70.910156 C 103.894531 68.078125 106.679688 64.207031 107.769531 60.152344 C 108.296875 58.195312 108.335938 54.464844 107.84375 52.671875 C 106.046875 46.089844 100.78125 41.460938 92.328125 39.039062 C 84.167969 36.703125 73.132812 36.554688 62.039062 38.632812 C 54.238281 40.097656 46.007812 42.71875 39.421875 45.84375 C 36.859375 47.058594 36.433594 47.097656 36.6875 46.089844 C 36.832031 45.503906 37.554688 45.023438 40.914062 43.285156 C 57.128906 34.878906 77.851562 31.9375 93.296875 35.851562 C 98.742188 37.226562 102.828125 39.195312 106.351562 42.132812 C 109.238281 44.542969 112.113281 49.9375 112.773438 53.230469 C 112.886719 53.792969 112.636719 52.96875 112.757812 53.21875 C 113.101562 53.914062 113.03125 59.035156 112.664062 60.226562 C 112.5 60.75 112.21875 61.695312 112.039062 62.328125 C 111.585938 63.914062 110.230469 66.742188 109.132812 68.390625 C 108 70.09375 105.007812 73.148438 103.320312 74.335938 C 101.992188 75.269531 99.210938 76.761719 98.800781 76.761719 C 98.613281 76.761719 98.554688 76.1875 98.554688 74.378906 Z M 29.628906 53.96875 C 29.570312 53.730469 29.546875 52.757812 29.578125 51.8125 L 29.632812 50.09375 L 34.328125 49.984375 L 34.21875 54.296875 L 31.980469 54.351562 C 29.785156 54.40625 29.734375 54.398438 29.628906 53.96875 Z M 99.703125 51.144531 C 42.953125 92.886719 71.328125 72.015625 99.703125 51.144531 Z M 99.703125 51.144531 "/>
</g>
</svg>
