
<svg xmlns="http://www.w3.org/2000/svg" xmlns:xlink="http://www.w3.org/1999/xlink" width="22px" height="22px" viewBox="0 0 22 22" version="1.1">
<g id="surface1">
<path style="fill-rule:nonzero;fill:rgb(100%,100%,100%);fill-opacity:1;stroke-width:27.103765;stroke-linecap:butt;stroke-linejoin:miter;stroke:rgb(17.647059%,53.72549%,80.784314%);stroke-opacity:1;stroke-miterlimit:4;" d="M 88.181818 34 L 423.818182 34 C 453.727273 34 478 58.272727 478 88.181818 L 478 423.818182 C 478 453.727273 453.727273 478 423.818182 478 L 88.181818 478 C 58.272727 478 34 453.727273 34 423.818182 L 34 88.181818 C 34 58.272727 58.272727 34 88.181818 34 Z M 88.181818 34 " transform="matrix(0.0429688,0,0,0.0429688,0,0)"/>
<path style=" stroke:none;fill-rule:nonzero;fill:rgb(17.647059%,53.72549%,80.784314%);fill-opacity:1;" d="M 7.902344 16.855469 C 5.34375 16.609375 3.558594 15.632812 2.9375 14.140625 C 2.710938 13.597656 2.585938 12.816406 2.636719 12.296875 C 2.714844 11.523438 3.015625 10.773438 3.519531 10.066406 C 3.714844 9.796875 4.335938 9.117188 4.390625 9.117188 C 4.40625 9.117188 4.417969 9.195312 4.417969 9.285156 C 4.417969 9.433594 4.402344 9.472656 4.292969 9.605469 C 4.132812 9.796875 3.832031 10.261719 3.714844 10.496094 C 3.355469 11.210938 3.183594 12.058594 3.265625 12.726562 C 3.351562 13.417969 3.617188 13.972656 4.085938 14.441406 C 4.839844 15.195312 5.902344 15.597656 7.640625 15.792969 C 8.101562 15.847656 9.707031 15.84375 10.300781 15.792969 C 12.339844 15.613281 14.285156 15.097656 15.949219 14.292969 C 16.261719 14.140625 16.527344 14.015625 16.53125 14.015625 C 16.539062 14.015625 16.542969 14.28125 16.542969 14.605469 L 16.542969 15.199219 L 16.273438 15.332031 C 15.027344 15.960938 13.226562 16.492188 11.5 16.742188 C 10.390625 16.902344 8.875 16.949219 7.902344 16.855469 Z M 13.117188 13.253906 C 12.882812 13.210938 12.574219 13.058594 12.414062 12.910156 C 12.089844 12.613281 11.929688 12.171875 11.929688 11.566406 C 11.929688 11.160156 11.972656 10.9375 12.113281 10.636719 C 12.515625 9.78125 13.785156 9.539062 14.433594 10.195312 C 14.734375 10.5 14.902344 10.960938 14.902344 11.488281 L 14.902344 11.78125 L 13.871094 11.78125 C 13.300781 11.78125 12.8125 11.789062 12.785156 11.800781 C 12.714844 11.828125 12.71875 12.023438 12.792969 12.191406 C 12.914062 12.457031 13.183594 12.613281 13.523438 12.617188 C 13.789062 12.617188 13.925781 12.582031 14.113281 12.453125 C 14.207031 12.390625 14.296875 12.339844 14.316406 12.339844 C 14.355469 12.339844 14.769531 12.734375 14.769531 12.773438 C 14.769531 12.824219 14.558594 12.992188 14.367188 13.09375 C 14.042969 13.269531 13.535156 13.335938 13.117188 13.253906 Z M 14.089844 11.125 C 14.050781 10.601562 13.566406 10.324219 13.101562 10.5625 C 12.945312 10.640625 12.847656 10.746094 12.785156 10.902344 C 12.730469 11.027344 12.714844 11.195312 12.753906 11.234375 C 12.769531 11.246094 13.074219 11.253906 13.4375 11.246094 L 14.097656 11.238281 Z M 5.664062 13.214844 C 5.328125 13.09375 5.160156 12.886719 5.109375 12.53125 C 5.074219 12.300781 5.066406 10.011719 5.097656 9.925781 C 5.113281 9.882812 5.179688 9.875 5.507812 9.875 L 5.898438 9.875 L 5.898438 11.566406 C 5.898438 13.460938 5.921875 13.304688 5.664062 13.214844 Z M 6.734375 13.183594 C 6.726562 13.164062 6.722656 12.414062 6.726562 11.519531 L 6.734375 9.890625 L 7.671875 9.882812 C 8.460938 9.875 8.640625 9.878906 8.8125 9.925781 C 9.070312 9.996094 9.277344 10.167969 9.386719 10.40625 C 9.460938 10.578125 9.464844 10.589844 9.472656 11.902344 L 9.484375 13.226562 L 8.691406 13.226562 L 8.6875 12.050781 C 8.6875 10.785156 8.679688 10.703125 8.519531 10.585938 C 8.445312 10.53125 8.363281 10.515625 8.054688 10.503906 C 7.484375 10.484375 7.539062 10.328125 7.539062 11.898438 L 7.539062 13.226562 L 7.144531 13.226562 C 6.859375 13.226562 6.746094 13.214844 6.734375 13.183594 Z M 10.765625 13.164062 C 10.550781 13.089844 10.363281 12.910156 10.261719 12.6875 L 10.1875 12.519531 L 10.1875 8.972656 L 10.589844 8.960938 L 10.988281 8.953125 L 11 9.40625 L 11.007812 9.859375 L 11.632812 9.890625 L 11.632812 10.484375 L 11.351562 10.5 C 11.199219 10.507812 11.054688 10.527344 11.03125 10.542969 C 11 10.5625 10.992188 10.785156 10.992188 11.46875 L 10.992188 12.367188 L 11.070312 12.460938 C 11.140625 12.542969 11.179688 12.554688 11.390625 12.570312 L 11.632812 12.585938 L 11.632812 13.210938 L 11.289062 13.21875 C 11.019531 13.222656 10.902344 13.210938 10.765625 13.164062 Z M 16.035156 13.132812 C 15.789062 13.050781 15.671875 12.949219 15.570312 12.742188 L 15.476562 12.554688 L 15.476562 8.476562 L 16.28125 8.460938 L 16.28125 10.828125 C 16.28125 12.699219 16.273438 13.191406 16.242188 13.191406 C 16.21875 13.191406 16.125 13.164062 16.035156 13.132812 Z M 16.9375 12.785156 L 16.9375 12.375 L 17.195312 12.1875 C 17.855469 11.703125 18.335938 11.035156 18.523438 10.339844 C 18.613281 10.003906 18.621094 9.359375 18.535156 9.054688 C 18.226562 7.921875 17.320312 7.125 15.867188 6.710938 C 14.464844 6.308594 12.570312 6.28125 10.664062 6.640625 C 9.320312 6.890625 7.90625 7.34375 6.777344 7.878906 C 6.335938 8.089844 6.261719 8.09375 6.304688 7.921875 C 6.332031 7.820312 6.453125 7.738281 7.03125 7.441406 C 9.820312 5.996094 13.382812 5.488281 16.035156 6.160156 C 16.972656 6.398438 17.671875 6.738281 18.277344 7.242188 C 18.773438 7.65625 19.269531 8.582031 19.382812 9.148438 C 19.402344 9.246094 19.359375 9.105469 19.378906 9.148438 C 19.4375 9.265625 19.425781 10.148438 19.363281 10.351562 C 19.335938 10.441406 19.289062 10.605469 19.257812 10.710938 C 19.179688 10.984375 18.945312 11.472656 18.757812 11.753906 C 18.5625 12.046875 18.046875 12.574219 17.757812 12.777344 C 17.53125 12.9375 17.050781 13.195312 16.980469 13.195312 C 16.949219 13.195312 16.9375 13.09375 16.9375 12.785156 Z M 5.09375 9.277344 C 5.082031 9.234375 5.078125 9.066406 5.082031 8.90625 L 5.09375 8.609375 L 5.898438 8.589844 L 5.882812 9.332031 L 5.496094 9.339844 C 5.121094 9.351562 5.109375 9.347656 5.09375 9.277344 Z M 17.136719 8.789062 C 7.382812 15.964844 12.257812 12.378906 17.136719 8.789062 Z M 17.136719 8.789062 "/>
</g>
</svg>
