
<svg xmlns="http://www.w3.org/2000/svg" xmlns:xlink="http://www.w3.org/1999/xlink" width="64px" height="64px" viewBox="0 0 64 64" version="1.1">
<g id="surface1">
<path style="fill-rule:nonzero;fill:rgb(100%,100%,100%);fill-opacity:1;stroke-width:27.103765;stroke-linecap:butt;stroke-linejoin:miter;stroke:rgb(17.647059%,53.72549%,80.784314%);stroke-opacity:1;stroke-miterlimit:4;" d="M 88.21875 34 L 423.78125 34 C 453.71875 34 478 58.28125 478 88.21875 L 478 423.78125 C 478 453.71875 453.71875 478 423.78125 478 L 88.21875 478 C 58.28125 478 34 453.71875 34 423.78125 L 34 88.21875 C 34 58.28125 58.28125 34 88.21875 34 Z M 88.21875 34 " transform="matrix(0.125,0,0,0.125,0,0)"/>
<path style=" stroke:none;fill-rule:nonzero;fill:rgb(17.647059%,53.72549%,80.784314%);fill-opacity:1;" d="M 22.988281 49.035156 C 15.546875 48.320312 10.355469 45.480469 8.542969 41.132812 C 7.886719 39.558594 7.519531 37.289062 7.671875 35.777344 C 7.902344 33.527344 8.769531 31.335938 10.242188 29.285156 C 10.808594 28.496094 12.613281 26.527344 12.769531 26.527344 C 12.816406 26.527344 12.855469 26.746094 12.855469 27.015625 C 12.855469 27.441406 12.808594 27.5625 12.488281 27.949219 C 12.023438 28.5 11.148438 29.847656 10.800781 30.535156 C 9.757812 32.613281 9.265625 35.078125 9.503906 37.027344 C 9.75 39.03125 10.519531 40.644531 11.890625 42.015625 C 14.074219 44.203125 17.167969 45.378906 22.222656 45.945312 C 23.566406 46.097656 28.242188 46.097656 29.96875 45.945312 C 35.898438 45.421875 41.554688 43.917969 46.398438 41.574219 C 47.3125 41.132812 48.074219 40.769531 48.09375 40.769531 C 48.113281 40.769531 48.128906 41.546875 48.128906 42.492188 L 48.128906 44.210938 L 47.339844 44.609375 C 43.71875 46.429688 38.476562 47.976562 33.457031 48.699219 C 30.230469 49.164062 25.8125 49.308594 22.988281 49.035156 Z M 38.152344 38.558594 C 37.476562 38.429688 36.578125 37.988281 36.109375 37.558594 C 35.164062 36.6875 34.707031 35.40625 34.707031 33.648438 C 34.707031 32.460938 34.835938 31.816406 35.242188 30.941406 C 36.414062 28.453125 40.101562 27.746094 41.988281 29.652344 C 42.867188 30.539062 43.351562 31.882812 43.351562 33.425781 L 43.351562 34.269531 L 40.347656 34.269531 C 38.695312 34.269531 37.277344 34.296875 37.191406 34.328125 C 36.984375 34.40625 37 34.980469 37.21875 35.464844 C 37.570312 36.238281 38.347656 36.695312 39.335938 36.703125 C 40.109375 36.707031 40.511719 36.597656 41.0625 36.226562 C 41.332031 36.046875 41.597656 35.894531 41.648438 35.894531 C 41.765625 35.894531 42.96875 37.042969 42.96875 37.15625 C 42.96875 37.304688 42.355469 37.796875 41.800781 38.09375 C 40.851562 38.605469 39.378906 38.792969 38.152344 38.558594 Z M 40.984375 32.359375 C 40.875 30.835938 39.460938 30.03125 38.109375 30.726562 C 37.664062 30.953125 37.378906 31.261719 37.1875 31.710938 C 37.035156 32.082031 36.992188 32.566406 37.109375 32.679688 C 37.144531 32.714844 38.035156 32.734375 39.089844 32.71875 L 41.007812 32.695312 Z M 16.476562 38.4375 C 15.496094 38.089844 15.007812 37.492188 14.859375 36.460938 C 14.761719 35.785156 14.734375 29.121094 14.824219 28.878906 C 14.875 28.75 15.074219 28.726562 16.019531 28.726562 L 17.15625 28.726562 L 17.15625 33.648438 C 17.15625 39.15625 17.222656 38.707031 16.476562 38.4375 Z M 19.589844 38.359375 C 19.566406 38.292969 19.558594 36.109375 19.570312 33.507812 L 19.59375 28.773438 L 22.320312 28.746094 C 24.613281 28.722656 25.136719 28.742188 25.640625 28.875 C 26.390625 29.074219 26.984375 29.574219 27.300781 30.277344 C 27.527344 30.777344 27.53125 30.808594 27.558594 34.628906 L 27.585938 38.476562 L 25.285156 38.476562 L 25.277344 35.058594 C 25.273438 31.378906 25.246094 31.136719 24.78125 30.796875 C 24.566406 30.636719 24.335938 30.59375 23.4375 30.5625 C 21.769531 30.496094 21.9375 30.039062 21.9375 34.609375 L 21.9375 38.476562 L 20.789062 38.476562 C 19.957031 38.476562 19.625 38.445312 19.589844 38.359375 Z M 31.320312 38.296875 C 30.695312 38.078125 30.148438 37.5625 29.855469 36.910156 L 29.632812 36.421875 L 29.632812 26.097656 L 31.96875 26.042969 L 31.996094 27.359375 L 32.023438 28.679688 L 33.839844 28.773438 L 33.839844 30.496094 L 33.027344 30.542969 C 32.578125 30.570312 32.160156 30.625 32.09375 30.667969 C 32.003906 30.726562 31.976562 31.375 31.976562 33.363281 L 31.976562 35.980469 L 32.207031 36.25 C 32.410156 36.484375 32.515625 36.523438 33.136719 36.566406 L 33.839844 36.613281 L 33.839844 38.429688 L 32.835938 38.453125 C 32.058594 38.46875 31.714844 38.433594 31.320312 38.296875 Z M 46.648438 38.210938 C 45.933594 37.960938 45.589844 37.671875 45.292969 37.0625 L 45.023438 36.515625 L 45.023438 24.664062 L 47.367188 24.609375 L 47.367188 31.496094 C 47.367188 36.941406 47.339844 38.378906 47.246094 38.378906 C 47.179688 38.375 46.910156 38.300781 46.648438 38.210938 Z M 49.277344 37.191406 L 49.277344 36 L 50.019531 35.457031 C 51.949219 34.039062 53.339844 32.101562 53.882812 30.078125 C 54.148438 29.097656 54.167969 27.234375 53.921875 26.335938 C 53.023438 23.042969 50.390625 20.730469 46.164062 19.519531 C 42.082031 18.351562 36.566406 18.277344 31.019531 19.316406 C 27.117188 20.046875 23.003906 21.359375 19.710938 22.921875 C 18.429688 23.53125 18.214844 23.550781 18.34375 23.046875 C 18.417969 22.75 18.777344 22.511719 20.457031 21.640625 C 28.566406 17.4375 38.925781 15.96875 46.648438 17.925781 C 49.371094 18.613281 51.414062 19.597656 53.175781 21.066406 C 54.617188 22.269531 56.058594 24.96875 56.386719 26.613281 C 56.441406 26.894531 56.316406 26.484375 56.378906 26.609375 C 56.550781 26.957031 56.515625 29.515625 56.332031 30.113281 C 56.25 30.375 56.109375 30.847656 56.019531 31.164062 C 55.792969 31.957031 55.113281 33.371094 54.566406 34.195312 C 54 35.046875 52.503906 36.574219 51.660156 37.167969 C 50.996094 37.632812 49.605469 38.382812 49.398438 38.382812 C 49.308594 38.382812 49.277344 38.09375 49.277344 37.191406 Z M 14.816406 26.984375 C 14.785156 26.863281 14.773438 26.378906 14.789062 25.90625 L 14.816406 25.046875 L 17.164062 24.992188 L 17.109375 27.148438 L 15.988281 27.175781 C 14.890625 27.203125 14.867188 27.199219 14.816406 26.984375 Z M 49.851562 25.570312 C 21.476562 46.441406 35.664062 36.007812 49.851562 25.570312 Z M 49.851562 25.570312 "/>
</g>
</svg>
