
<svg xmlns="http://www.w3.org/2000/svg" xmlns:xlink="http://www.w3.org/1999/xlink" width="16px" height="16px" viewBox="0 0 16 16" version="1.1">
<g id="surface1">
<path style="fill-rule:nonzero;fill:rgb(100%,100%,100%);fill-opacity:1;stroke-width:27.103765;stroke-linecap:butt;stroke-linejoin:miter;stroke:rgb(17.647059%,53.72549%,80.784314%);stroke-opacity:1;stroke-miterlimit:4;" d="M 88.25 34 L 423.75 34 C 453.75 34 478 58.25 478 88.25 L 478 423.75 C 478 453.75 453.75 478 423.75 478 L 88.25 478 C 58.25 478 34 453.75 34 423.75 L 34 88.25 C 34 58.25 58.25 34 88.25 34 Z M 88.25 34 " transform="matrix(0.03125,0,0,0.03125,0,0)"/>
<path style=" stroke:none;fill-rule:nonzero;fill:rgb(17.647059%,53.72549%,80.784314%);fill-opacity:1;" d="M 5.746094 12.257812 C 3.886719 12.082031 2.589844 11.371094 2.136719 10.28125 C 1.972656 9.890625 1.878906 9.324219 1.917969 8.945312 C 1.976562 8.382812 2.191406 7.835938 2.5625 7.320312 C 2.703125 7.125 3.152344 6.632812 3.191406 6.632812 C 3.203125 6.632812 3.214844 6.6875 3.214844 6.753906 C 3.214844 6.859375 3.203125 6.890625 3.121094 6.988281 C 3.007812 7.125 2.789062 7.460938 2.699219 7.632812 C 2.4375 8.152344 2.316406 8.769531 2.375 9.257812 C 2.4375 9.757812 2.628906 10.160156 2.972656 10.503906 C 3.519531 11.050781 4.292969 11.34375 5.554688 11.488281 C 5.890625 11.523438 7.0625 11.523438 7.492188 11.484375 C 8.976562 11.355469 10.386719 10.980469 11.597656 10.394531 C 11.828125 10.28125 12.019531 10.191406 12.023438 10.191406 C 12.027344 10.191406 12.03125 10.386719 12.03125 10.621094 L 12.03125 11.050781 L 11.835938 11.152344 C 10.929688 11.609375 9.621094 11.992188 8.363281 12.175781 C 7.558594 12.292969 6.453125 12.328125 5.746094 12.257812 Z M 9.539062 9.640625 C 9.371094 9.605469 9.144531 9.496094 9.027344 9.390625 C 8.792969 9.171875 8.675781 8.851562 8.675781 8.414062 C 8.675781 8.117188 8.707031 7.953125 8.8125 7.734375 C 9.101562 7.113281 10.023438 6.9375 10.496094 7.414062 C 10.714844 7.636719 10.835938 7.96875 10.835938 8.355469 L 10.835938 8.566406 L 10.085938 8.566406 C 9.675781 8.566406 9.320312 8.574219 9.296875 8.582031 C 9.246094 8.601562 9.25 8.746094 9.304688 8.867188 C 9.394531 9.058594 9.585938 9.171875 9.835938 9.175781 C 10.027344 9.175781 10.128906 9.148438 10.265625 9.058594 C 10.332031 9.011719 10.398438 8.972656 10.410156 8.972656 C 10.441406 8.972656 10.742188 9.261719 10.742188 9.289062 C 10.742188 9.324219 10.589844 9.449219 10.449219 9.523438 C 10.214844 9.652344 9.84375 9.699219 9.539062 9.640625 Z M 10.246094 8.089844 C 10.21875 7.707031 9.867188 7.507812 9.527344 7.683594 C 9.417969 7.738281 9.34375 7.816406 9.296875 7.929688 C 9.257812 8.019531 9.25 8.140625 9.277344 8.167969 C 9.285156 8.179688 9.507812 8.183594 9.773438 8.179688 L 10.253906 8.171875 Z M 4.117188 9.609375 C 3.875 9.523438 3.753906 9.371094 3.714844 9.113281 C 3.691406 8.945312 3.683594 7.28125 3.707031 7.21875 C 3.71875 7.1875 3.769531 7.179688 4.003906 7.179688 L 4.289062 7.179688 L 4.289062 8.414062 C 4.289062 9.789062 4.304688 9.675781 4.117188 9.609375 Z M 4.898438 9.589844 C 4.890625 9.574219 4.890625 9.027344 4.894531 8.375 L 4.898438 7.195312 L 5.578125 7.1875 C 6.152344 7.179688 6.285156 7.1875 6.410156 7.21875 C 6.597656 7.269531 6.746094 7.394531 6.824219 7.570312 C 6.882812 7.695312 6.882812 7.703125 6.890625 8.65625 L 6.898438 9.617188 L 6.320312 9.617188 L 6.320312 8.765625 C 6.316406 7.84375 6.3125 7.785156 6.195312 7.699219 C 6.140625 7.660156 6.082031 7.648438 5.859375 7.640625 C 5.441406 7.625 5.484375 7.511719 5.484375 8.652344 L 5.484375 9.617188 L 5.195312 9.617188 C 4.988281 9.617188 4.90625 9.609375 4.898438 9.589844 Z M 7.832031 9.574219 C 7.675781 9.519531 7.539062 9.390625 7.464844 9.226562 L 7.410156 9.105469 L 7.410156 6.523438 L 7.699219 6.515625 L 7.992188 6.511719 L 8 6.839844 L 8.003906 7.167969 L 8.460938 7.195312 L 8.460938 7.625 L 8.257812 7.636719 C 8.144531 7.640625 8.039062 7.65625 8.023438 7.667969 C 8 7.679688 7.992188 7.84375 7.992188 8.339844 L 7.992188 8.996094 L 8.050781 9.0625 C 8.101562 9.121094 8.128906 9.128906 8.285156 9.140625 L 8.460938 9.152344 L 8.460938 9.605469 L 8.207031 9.613281 C 8.015625 9.617188 7.929688 9.609375 7.832031 9.574219 Z M 11.660156 9.550781 C 11.484375 9.492188 11.398438 9.417969 11.324219 9.265625 L 11.257812 9.128906 L 11.257812 6.164062 L 11.839844 6.152344 L 11.839844 7.875 C 11.839844 9.234375 11.835938 9.59375 11.8125 9.59375 C 11.796875 9.59375 11.726562 9.574219 11.660156 9.550781 Z M 12.320312 9.296875 L 12.320312 9 L 12.503906 8.863281 C 12.988281 8.511719 13.335938 8.027344 13.472656 7.519531 C 13.539062 7.273438 13.542969 6.808594 13.480469 6.585938 C 13.257812 5.761719 12.597656 5.183594 11.539062 4.878906 C 10.519531 4.585938 9.140625 4.570312 7.753906 4.828125 C 6.78125 5.011719 5.75 5.339844 4.929688 5.730469 C 4.605469 5.882812 4.554688 5.886719 4.585938 5.761719 C 4.605469 5.6875 4.695312 5.628906 5.113281 5.410156 C 7.140625 4.359375 9.730469 3.992188 11.664062 4.480469 C 12.34375 4.652344 12.851562 4.898438 13.292969 5.265625 C 13.65625 5.566406 14.015625 6.242188 14.097656 6.652344 C 14.109375 6.722656 14.078125 6.621094 14.09375 6.652344 C 14.136719 6.738281 14.128906 7.378906 14.082031 7.527344 C 14.0625 7.59375 14.027344 7.710938 14.003906 7.789062 C 13.949219 7.988281 13.777344 8.34375 13.640625 8.550781 C 13.5 8.761719 13.125 9.144531 12.914062 9.292969 C 12.75 9.410156 12.402344 9.59375 12.351562 9.59375 C 12.328125 9.59375 12.320312 9.523438 12.320312 9.296875 Z M 3.703125 6.746094 C 3.695312 6.714844 3.691406 6.59375 3.695312 6.476562 L 3.703125 6.261719 L 4.292969 6.25 L 4.285156 6.515625 L 4.277344 6.789062 L 3.996094 6.792969 C 3.722656 6.800781 3.71875 6.800781 3.703125 6.746094 Z M 12.460938 6.394531 C 5.371094 11.609375 8.917969 9 12.460938 6.394531 Z M 12.460938 6.394531 "/>
</g>
</svg>
