
<svg xmlns="http://www.w3.org/2000/svg" xmlns:xlink="http://www.w3.org/1999/xlink" width="16px" height="16px" viewBox="0 0 16 16" version="1.1">
<g id="surface1">
<path style="fill-rule:nonzero;fill:rgb(15.686275%,14.901961%,16.078431%);fill-opacity:1;stroke-width:27.910587;stroke-linecap:butt;stroke-linejoin:miter;stroke:rgb(49.411765%,76.078431%,2.352941%);stroke-opacity:1;stroke-miterlimit:4;" d="M 83.25 27.375 L 428.75 27.375 C 459.625 27.375 484.625 52.375 484.625 83.25 L 484.625 428.75 C 484.625 459.625 459.625 484.625 428.75 484.625 L 83.25 484.625 C 52.375 484.625 27.375 459.625 27.375 428.75 L 27.375 83.25 C 27.375 52.375 52.375 27.375 83.25 27.375 Z M 83.25 27.375 " transform="matrix(0.03125,0,0,0.03125,0,0)"/>
<path style="fill-rule:nonzero;fill:rgb(49.411765%,76.078431%,2.352941%);fill-opacity:1;stroke-width:27.910587;stroke-linecap:butt;stroke-linejoin:miter;stroke:rgb(49.411765%,76.078431%,2.352941%);stroke-opacity:1;stroke-miterlimit:4;" d="M 83.25 27.375 C 52.25 27.375 27.375 52.25 27.375 83.25 L 27.375 428.75 C 27.375 459.75 52.25 484.625 83.25 484.625 L 243 484.625 L 243 27.375 Z M 83.25 27.375 " transform="matrix(0.03125,0,0,0.03125,0,0)"/>
<path style=" stroke:none;fill-rule:evenodd;fill:rgb(100%,100%,100%);fill-opacity:1;" d="M 8.019531 4.15625 L 8.019531 4.25 C 8.019531 4.21875 8.019531 4.1875 8.023438 4.160156 C 8.023438 4.160156 8.019531 4.15625 8.019531 4.15625 M 8.339844 5.007812 C 8.300781 5.007812 8.257812 5.007812 8.21875 5.007812 C 8.152344 5.011719 8.085938 5.015625 8.019531 5.023438 C 8.019531 5.023438 8.019531 5.023438 8.015625 5.023438 C 5.753906 5.203125 3.792969 7.125 3.792969 7.125 C 3.792969 7.125 4.902344 10.332031 8.019531 10.628906 C 8.167969 10.640625 8.324219 10.65625 8.480469 10.65625 C 10.125 10.65625 13.023438 9.8125 14.269531 8.773438 C 14.085938 8.585938 13.195312 8.164062 12.980469 7.992188 C 11.671875 9.121094 10.320312 10.074219 8.449219 10.074219 C 8.300781 10.074219 8.15625 10.066406 8.019531 10.046875 C 5.730469 9.757812 4.949219 7.238281 4.949219 7.238281 C 4.949219 7.238281 5.972656 5.726562 8.019531 5.570312 C 8.085938 5.566406 8.152344 5.5625 8.21875 5.5625 C 8.246094 5.5625 8.277344 5.558594 8.304688 5.558594 C 10.109375 5.554688 11.289062 7.152344 11.289062 7.152344 C 11.289062 7.152344 9.976562 8.976562 8.566406 8.976562 C 8.367188 8.976562 8.183594 8.9375 8.019531 8.882812 C 7.042969 8.558594 6.730469 7.421875 6.730469 7.421875 C 6.730469 7.421875 7.296875 6.746094 8.019531 6.832031 C 8.738281 6.921875 8.886719 7.242188 9.320312 7.964844 L 10.285156 7.144531 C 10.285156 7.144531 9.582031 6.226562 8.394531 6.226562 C 8.265625 6.226562 8.140625 6.234375 8.019531 6.246094 C 6.640625 6.398438 5.8125 7.3125 5.8125 7.3125 C 5.8125 7.3125 6.289062 9.113281 8.019531 9.421875 C 8.179688 9.449219 8.351562 9.464844 8.535156 9.464844 C 10.542969 9.464844 12.472656 7.125 12.472656 7.125 C 12.472656 7.125 10.847656 4.992188 8.339844 5.007812 "/>
</g>
</svg>
