<?xml version="1.0" encoding="UTF-8" standalone="no"?>
<svg
   xmlns:dc="http://purl.org/dc/elements/1.1/"
   xmlns:cc="http://creativecommons.org/ns#"
   xmlns:rdf="http://www.w3.org/1999/02/22-rdf-syntax-ns#"
   xmlns:svg="http://www.w3.org/2000/svg"
   xmlns="http://www.w3.org/2000/svg"
   xmlns:sodipodi="http://sodipodi.sourceforge.net/DTD/sodipodi-0.dtd"
   xmlns:inkscape="http://www.inkscape.org/namespaces/inkscape"
   width="16px"
   height="16px"
   viewBox="0 0 16 16"
   version="1.1"
   id="svg9"
   sodipodi:docname="prime-hybrid.svg"
   inkscape:version="0.92.4 5da689c313, 2019-01-14">
  <metadata
     id="metadata15">
    <rdf:RDF>
      <cc:Work
         rdf:about="">
        <dc:format>image/svg+xml</dc:format>
        <dc:type
           rdf:resource="http://purl.org/dc/dcmitype/StillImage" />
      </cc:Work>
    </rdf:RDF>
  </metadata>
  <defs
     id="defs13" />
  <sodipodi:namedview
     pagecolor="#ffffff"
     bordercolor="#666666"
     borderopacity="1"
     objecttolerance="10"
     gridtolerance="10"
     guidetolerance="10"
     inkscape:pageopacity="0"
     inkscape:pageshadow="2"
     inkscape:window-width="1920"
     inkscape:window-height="1017"
     id="namedview11"
     showgrid="false"
     inkscape:zoom="14.75"
     inkscape:cx="8"
     inkscape:cy="8"
     inkscape:window-x="0"
     inkscape:window-y="0"
     inkscape:window-maximized="1"
     inkscape:current-layer="svg9" />
  <g
     id="g831">
    <path
       style="fill:#262328;fill-opacity:1;fill-rule:nonzero;stroke:#2b87cc;stroke-width:0.87220585;stroke-linecap:butt;stroke-linejoin:miter;stroke-miterlimit:4;stroke-opacity:1"
       d="M 2.6015625,0.85546875 H 13.398438 c 0.964843,0 1.746093,0.78124995 1.746093,1.74609375 V 13.398438 c 0,0.964843 -0.78125,1.746093 -1.746093,1.746093 H 2.6015625 c -0.9648438,0 -1.74609375,-0.78125 -1.74609375,-1.746093 V 2.6015625 c 0,-0.9648438 0.78124995,-1.74609375 1.74609375,-1.74609375 z m 0,0"
       id="path2"
       inkscape:connector-curvature="0" />
    <path
       style="fill:#2b87cc;fill-opacity:1;fill-rule:nonzero;stroke:#2b87cc;stroke-width:0.87220585;stroke-linecap:butt;stroke-linejoin:miter;stroke-miterlimit:4;stroke-opacity:1"
       d="m 2.6015625,0.85546875 c -0.96875,0 -1.74609375,0.77734375 -1.74609375,1.74609375 V 13.398438 c 0,0.96875 0.77734375,1.746093 1.74609375,1.746093 H 7.59375 V 0.85546875 Z m 0,0"
       id="path4"
       inkscape:connector-curvature="0" />
    <path
       style="fill:#ffffff;fill-opacity:1;fill-rule:evenodd;stroke:none"
       d="M 8.019531,4.15625 V 4.25 c 0,-0.03125 0,-0.0625 0.00391,-0.089844 0,0 -0.00391,-0.00391 -0.00391,-0.00391 m 0.320313,0.851562 c -0.039063,0 -0.082032,0 -0.121094,0 -0.066406,0.00391 -0.132812,0.00781 -0.199219,0.015626 0,0 0,0 -0.00391,0 C 5.753906,5.203125 3.792969,7.125 3.792969,7.125 c 0,0 1.109375,3.207031 4.226562,3.503906 0.148438,0.01172 0.304688,0.02734 0.460938,0.02734 1.644531,0 4.542969,-0.84375 5.789062,-1.882812 -0.183593,-0.1875 -1.074219,-0.609376 -1.289062,-0.78125 -1.308594,1.128906 -2.660157,2.082031 -4.53125,2.082031 -0.148438,0 -0.292969,-0.0078 -0.429688,-0.02734 C 5.730469,9.757812 4.949219,7.238281 4.949219,7.238281 c 0,0 1.023437,-1.511719 3.070312,-1.667969 C 8.085938,5.566406 8.152344,5.5625 8.21875,5.5625 c 0.027344,0 0.058594,-0.00391 0.085938,-0.00391 1.804687,-0.00391 2.984374,1.59375 2.984374,1.59375 0,0 -1.3125,1.824218 -2.722656,1.824218 -0.199218,0 -0.382812,-0.039062 -0.546875,-0.09375 C 7.042969,8.558594 6.730469,7.421875 6.730469,7.421875 c 0,0 0.566406,-0.675781 1.289062,-0.589844 0.71875,0.089844 0.867188,0.410157 1.300781,1.132813 l 0.964844,-0.820313 c 0,0 -0.703125,-0.917969 -1.890625,-0.917969 -0.128906,0 -0.253906,0.00781 -0.375,0.019532 C 6.640625,6.398438 5.8125,7.3125 5.8125,7.3125 c 0,0 0.476562,1.800781 2.207031,2.109375 0.160157,0.027344 0.332031,0.042969 0.515625,0.042969 2.007813,0 3.9375,-2.339844 3.9375,-2.339844 0,0 -1.625,-2.132812 -4.132812,-2.117188"
       id="path6"
       inkscape:connector-curvature="0" />
  </g>
</svg>
