
<svg xmlns="http://www.w3.org/2000/svg" xmlns:xlink="http://www.w3.org/1999/xlink" width="22px" height="22px" viewBox="0 0 22 22" version="1.1">
<g id="surface1">
<path style="fill-rule:nonzero;fill:rgb(15.686275%,14.901961%,16.078431%);fill-opacity:1;stroke-width:27.910587;stroke-linecap:butt;stroke-linejoin:miter;stroke:rgb(49.411765%,76.078431%,2.352941%);stroke-opacity:1;stroke-miterlimit:4;" d="M 83.181818 27.363636 L 428.818182 27.363636 C 459.636364 27.363636 484.636364 52.363636 484.636364 83.181818 L 484.636364 428.818182 C 484.636364 459.636364 459.636364 484.636364 428.818182 484.636364 L 83.181818 484.636364 C 52.363636 484.636364 27.363636 459.636364 27.363636 428.818182 L 27.363636 83.181818 C 27.363636 52.363636 52.363636 27.363636 83.181818 27.363636 Z M 83.181818 27.363636 " transform="matrix(0.0429688,0,0,0.0429688,0,0)"/>
<path style="fill-rule:nonzero;fill:rgb(49.411765%,76.078431%,2.352941%);fill-opacity:1;stroke-width:27.910587;stroke-linecap:butt;stroke-linejoin:miter;stroke:rgb(49.411765%,76.078431%,2.352941%);stroke-opacity:1;stroke-miterlimit:4;" d="M 83.181818 27.363636 C 52.272727 27.363636 27.363636 52.272727 27.363636 83.181818 L 27.363636 428.818182 C 27.363636 459.727273 52.272727 484.636364 83.181818 484.636364 L 243 484.636364 L 243 27.363636 Z M 83.181818 27.363636 " transform="matrix(0.0429688,0,0,0.0429688,0,0)"/>
<path style=" stroke:none;fill-rule:evenodd;fill:rgb(100%,100%,100%);fill-opacity:1;" d="M 11.023438 5.714844 L 11.023438 5.84375 C 11.023438 5.800781 11.027344 5.761719 11.03125 5.71875 C 11.03125 5.71875 11.027344 5.71875 11.023438 5.714844 M 11.464844 6.882812 C 11.410156 6.882812 11.355469 6.882812 11.300781 6.886719 C 11.207031 6.890625 11.117188 6.898438 11.023438 6.90625 C 7.910156 7.15625 5.214844 9.792969 5.214844 9.792969 C 5.214844 9.792969 6.738281 14.207031 11.023438 14.613281 C 11.230469 14.632812 11.445312 14.652344 11.660156 14.652344 C 13.921875 14.652344 17.910156 13.492188 19.621094 12.0625 C 19.371094 11.808594 18.144531 11.226562 17.847656 10.988281 C 16.046875 12.539062 14.1875 13.851562 11.617188 13.851562 C 11.414062 13.851562 11.214844 13.839844 11.023438 13.816406 C 7.882812 13.417969 6.804688 9.953125 6.804688 9.953125 C 6.804688 9.953125 8.210938 7.875 11.023438 7.660156 C 11.117188 7.652344 11.207031 7.652344 11.300781 7.648438 C 11.339844 7.644531 11.378906 7.644531 11.417969 7.644531 C 13.898438 7.636719 15.519531 9.832031 15.519531 9.832031 C 15.519531 9.832031 13.714844 12.34375 11.78125 12.34375 C 11.503906 12.34375 11.25 12.292969 11.023438 12.214844 C 9.6875 11.765625 9.253906 10.207031 9.253906 10.207031 C 9.253906 10.207031 10.03125 9.277344 11.023438 9.394531 C 12.015625 9.515625 12.222656 9.957031 12.816406 10.949219 L 14.140625 9.824219 C 14.140625 9.824219 13.175781 8.558594 11.542969 8.558594 C 11.367188 8.558594 11.191406 8.574219 11.023438 8.589844 C 9.128906 8.796875 7.992188 10.058594 7.992188 10.058594 C 7.992188 10.058594 8.648438 12.53125 11.023438 12.953125 C 11.246094 12.992188 11.484375 13.015625 11.738281 13.015625 C 14.5 13.015625 17.148438 9.796875 17.148438 9.796875 C 17.148438 9.796875 14.914062 6.863281 11.464844 6.882812 "/>
</g>
</svg>
