<?xml version="1.0" encoding="UTF-8" standalone="no"?>
<svg
   xmlns:dc="http://purl.org/dc/elements/1.1/"
   xmlns:cc="http://creativecommons.org/ns#"
   xmlns:rdf="http://www.w3.org/1999/02/22-rdf-syntax-ns#"
   xmlns:svg="http://www.w3.org/2000/svg"
   xmlns="http://www.w3.org/2000/svg"
   xmlns:sodipodi="http://sodipodi.sourceforge.net/DTD/sodipodi-0.dtd"
   xmlns:inkscape="http://www.inkscape.org/namespaces/inkscape"
   width="22px"
   height="22px"
   viewBox="0 0 22 22"
   version="1.1"
   id="svg9"
   sodipodi:docname="prime-hybrid.svg"
   inkscape:version="0.92.4 5da689c313, 2019-01-14">
  <metadata
     id="metadata15">
    <rdf:RDF>
      <cc:Work
         rdf:about="">
        <dc:format>image/svg+xml</dc:format>
        <dc:type
           rdf:resource="http://purl.org/dc/dcmitype/StillImage" />
      </cc:Work>
    </rdf:RDF>
  </metadata>
  <defs
     id="defs13" />
  <sodipodi:namedview
     pagecolor="#ffffff"
     bordercolor="#666666"
     borderopacity="1"
     objecttolerance="10"
     gridtolerance="10"
     guidetolerance="10"
     inkscape:pageopacity="0"
     inkscape:pageshadow="2"
     inkscape:window-width="1920"
     inkscape:window-height="1017"
     id="namedview11"
     showgrid="false"
     inkscape:zoom="21.454545"
     inkscape:cx="1.7171276"
     inkscape:cy="12.855801"
     inkscape:window-x="0"
     inkscape:window-y="0"
     inkscape:window-maximized="1"
     inkscape:current-layer="svg9" />
  <g
     id="g817">
    <path
       style="fill:#262328;fill-opacity:1;fill-rule:nonzero;stroke:#2b87cc;stroke-width:1.19928443;stroke-linecap:butt;stroke-linejoin:miter;stroke-miterlimit:4;stroke-opacity:1"
       d="M 3.5742229,1.1757826 H 18.425803 c 1.32422,0 2.39844,1.07422 2.39844,2.3984403 V 18.425803 c 0,1.32422 -1.07422,2.39844 -2.39844,2.39844 H 3.5742229 c -1.3242203,0 -2.3984403,-1.07422 -2.3984403,-2.39844 V 3.5742229 c 0,-1.3242203 1.07422,-2.3984403 2.3984403,-2.3984403 z m 0,0"
       id="path2"
       inkscape:connector-curvature="0" />
    <path
       style="fill:#2b87cc;fill-opacity:1;fill-rule:nonzero;stroke:#2b87cc;stroke-width:1.19928443;stroke-linecap:butt;stroke-linejoin:miter;stroke-miterlimit:4;stroke-opacity:1"
       d="m 3.5742229,1.1757826 c -1.3281265,0 -2.3984403,1.0703138 -2.3984403,2.3984403 V 18.425803 c 0,1.328126 1.0703138,2.39844 2.3984403,2.39844 H 10.441418 V 1.1757826 Z m 0,0"
       id="path4"
       inkscape:connector-curvature="0" />
    <path
       style="fill:#ffffff;fill-opacity:1;fill-rule:evenodd;stroke:none"
       d="M 11.023438,5.714844 V 5.84375 c 0,-0.042969 0.0039,-0.082031 0.0078,-0.125 0,0 -0.0039,0 -0.0078,-0.00391 m 0.441406,1.167968 c -0.05469,0 -0.109375,0 -0.164063,0.00391 -0.09375,0.00391 -0.183593,0.011719 -0.277343,0.019531 -3.113282,0.25 -5.808594,2.886719 -5.808594,2.886719 0,0 1.523437,4.414062 5.808594,4.820312 0.207031,0.01953 0.421874,0.03906 0.636718,0.03906 2.261719,0 6.25,-1.160156 7.960938,-2.589844 -0.25,-0.253906 -1.476563,-0.835938 -1.773438,-1.074219 -1.800781,1.550781 -3.660156,2.863281 -6.230468,2.863281 -0.203126,0 -0.402344,-0.01172 -0.59375,-0.03516 -3.140626,-0.398437 -4.21875,-3.863281 -4.21875,-3.863281 0,0 1.40625,-2.078125 4.21875,-2.292969 0.09375,-0.00781 0.183593,-0.00781 0.277343,-0.011718 0.03906,-0.00391 0.07813,-0.00391 0.117188,-0.00391 2.480469,-0.00781 4.101562,2.1875 4.101562,2.1875 0,0 -1.804687,2.511719 -3.738281,2.511719 -0.277344,0 -0.53125,-0.05078 -0.757812,-0.128906 C 9.6875,11.765625 9.253906,10.207031 9.253906,10.207031 c 0,0 0.777344,-0.929687 1.769532,-0.8125 0.992187,0.121094 1.199218,0.5625 1.792968,1.554688 l 1.324219,-1.125 c 0,0 -0.964844,-1.265625 -2.597656,-1.265625 -0.175781,0 -0.351563,0.015625 -0.519531,0.03125 -1.894532,0.207031 -3.03125,1.46875 -3.03125,1.46875 0,0 0.65625,2.472656 3.03125,2.894531 0.222656,0.03906 0.460937,0.0625 0.714843,0.0625 2.761719,0 5.410157,-3.21875 5.410157,-3.21875 0,0 -2.234376,-2.933594 -5.683594,-2.914063"
       id="path6"
       inkscape:connector-curvature="0" />
  </g>
</svg>
