<?xml version="1.0" encoding="UTF-8"?>
<svg xmlns="http://www.w3.org/2000/svg" xmlns:xlink="http://www.w3.org/1999/xlink" width="22pt" height="22pt" viewBox="0 0 22 22" version="1.1">
<g id="surface1">
<path style="fill-rule:nonzero;fill:rgb(34.509804%,47.058824%,35.686275%);fill-opacity:1;stroke-width:18.73;stroke-linecap:butt;stroke-linejoin:miter;stroke:rgb(24.705882%,33.72549%,25.490196%);stroke-opacity:1;stroke-miterlimit:4;" d="M 71.251747 35.923077 L 425.979019 35.923077 C 452.251747 35.923077 473.615383 57.286713 473.615383 83.55944 L 473.615383 438.286713 C 473.615383 464.55944 452.251747 485.923077 425.979019 485.923077 L 71.251747 485.923077 C 44.979019 485.923077 23.615383 464.55944 23.615383 438.286713 L 23.615383 83.55944 C 23.615383 57.286713 44.979019 35.923077 71.251747 35.923077 Z M 71.251747 35.923077 " transform="matrix(0.0429688,0,0,0.0429688,0.317308,-0.211538)"/>
<path style=" stroke:none;fill-rule:nonzero;fill:rgb(100%,100%,100%);fill-opacity:1;" d="M 14.632812 5.09375 L 15.492188 5.09375 C 15.871094 5.09375 16.183594 5.390625 16.183594 5.757812 L 16.183594 6.140625 C 16.183594 6.507812 15.871094 6.804688 15.492188 6.804688 L 14.632812 6.804688 C 14.25 6.804688 13.941406 6.507812 13.941406 6.140625 L 13.941406 5.757812 C 13.941406 5.390625 14.25 5.09375 14.632812 5.09375 Z M 14.632812 5.09375 "/>
<path style=" stroke:none;fill-rule:nonzero;fill:rgb(100%,100%,100%);fill-opacity:1;" d="M 14.632812 7.585938 L 15.492188 7.585938 C 15.871094 7.585938 16.183594 7.882812 16.183594 8.25 L 16.183594 8.632812 C 16.183594 9 15.871094 9.296875 15.492188 9.296875 L 14.632812 9.296875 C 14.25 9.296875 13.941406 9 13.941406 8.632812 L 13.941406 8.25 C 13.941406 7.882812 14.25 7.585938 14.632812 7.585938 Z M 14.632812 7.585938 "/>
<path style=" stroke:none;fill-rule:nonzero;fill:rgb(100%,100%,100%);fill-opacity:1;" d="M 14.632812 10.25 L 15.492188 10.25 C 15.871094 10.25 16.183594 10.546875 16.183594 10.914062 L 16.183594 11.296875 C 16.183594 11.664062 15.871094 11.960938 15.492188 11.960938 L 14.632812 11.960938 C 14.25 11.960938 13.941406 11.664062 13.941406 11.296875 L 13.941406 10.914062 C 13.941406 10.546875 14.25 10.25 14.632812 10.25 Z M 14.632812 10.25 "/>
<path style=" stroke:none;fill-rule:nonzero;fill:rgb(100%,100%,100%);fill-opacity:1;" d="M 14.632812 12.742188 L 15.492188 12.742188 C 15.871094 12.742188 16.183594 13.039062 16.183594 13.40625 L 16.183594 13.789062 C 16.183594 14.15625 15.871094 14.453125 15.492188 14.453125 L 14.632812 14.453125 C 14.25 14.453125 13.941406 14.15625 13.941406 13.789062 L 13.941406 13.40625 C 13.941406 13.039062 14.25 12.742188 14.632812 12.742188 Z M 14.632812 12.742188 "/>
<path style=" stroke:none;fill-rule:nonzero;fill:rgb(100%,100%,100%);fill-opacity:1;" d="M 14.632812 15.320312 L 15.492188 15.320312 C 15.871094 15.320312 16.183594 15.617188 16.183594 15.984375 L 16.183594 16.367188 C 16.183594 16.734375 15.871094 17.03125 15.492188 17.03125 L 14.632812 17.03125 C 14.25 17.03125 13.941406 16.734375 13.941406 16.367188 L 13.941406 15.984375 C 13.941406 15.617188 14.25 15.320312 14.632812 15.320312 Z M 14.632812 15.320312 "/>
<path style=" stroke:none;fill-rule:nonzero;fill:rgb(100%,100%,100%);fill-opacity:1;" d="M 6.726562 5.09375 L 7.585938 5.09375 C 7.964844 5.09375 8.277344 5.390625 8.277344 5.757812 L 8.277344 6.140625 C 8.277344 6.507812 7.964844 6.804688 7.585938 6.804688 L 6.726562 6.804688 C 6.34375 6.804688 6.035156 6.507812 6.035156 6.140625 L 6.035156 5.757812 C 6.035156 5.390625 6.34375 5.09375 6.726562 5.09375 Z M 6.726562 5.09375 "/>
<path style=" stroke:none;fill-rule:nonzero;fill:rgb(100%,100%,100%);fill-opacity:1;" d="M 6.726562 7.585938 L 7.585938 7.585938 C 7.964844 7.585938 8.277344 7.882812 8.277344 8.25 L 8.277344 8.632812 C 8.277344 9 7.964844 9.296875 7.585938 9.296875 L 6.726562 9.296875 C 6.34375 9.296875 6.035156 9 6.035156 8.632812 L 6.035156 8.25 C 6.035156 7.882812 6.34375 7.585938 6.726562 7.585938 Z M 6.726562 7.585938 "/>
<path style=" stroke:none;fill-rule:nonzero;fill:rgb(100%,100%,100%);fill-opacity:1;" d="M 6.726562 10.25 L 7.585938 10.25 C 7.964844 10.25 8.277344 10.546875 8.277344 10.914062 L 8.277344 11.296875 C 8.277344 11.664062 7.964844 11.960938 7.585938 11.960938 L 6.726562 11.960938 C 6.34375 11.960938 6.035156 11.664062 6.035156 11.296875 L 6.035156 10.914062 C 6.035156 10.546875 6.34375 10.25 6.726562 10.25 Z M 6.726562 10.25 "/>
<path style=" stroke:none;fill-rule:nonzero;fill:rgb(100%,100%,100%);fill-opacity:1;" d="M 6.726562 12.742188 L 7.585938 12.742188 C 7.964844 12.742188 8.277344 13.039062 8.277344 13.40625 L 8.277344 13.789062 C 8.277344 14.15625 7.964844 14.453125 7.585938 14.453125 L 6.726562 14.453125 C 6.34375 14.453125 6.035156 14.15625 6.035156 13.789062 L 6.035156 13.40625 C 6.035156 13.039062 6.34375 12.742188 6.726562 12.742188 Z M 6.726562 12.742188 "/>
<path style=" stroke:none;fill-rule:nonzero;fill:rgb(100%,100%,100%);fill-opacity:1;" d="M 6.726562 15.320312 L 7.585938 15.320312 C 7.964844 15.320312 8.277344 15.617188 8.277344 15.984375 L 8.277344 16.367188 C 8.277344 16.734375 7.964844 17.03125 7.585938 17.03125 L 6.726562 17.03125 C 6.34375 17.03125 6.035156 16.734375 6.035156 16.367188 L 6.035156 15.984375 C 6.035156 15.617188 6.34375 15.320312 6.726562 15.320312 Z M 6.726562 15.320312 "/>
<path style=" stroke:none;fill-rule:nonzero;fill:rgb(28.627451%,28.627451%,29.803922%);fill-opacity:1;" d="M 14 18.726562 C 13.902344 18.78125 13.742188 18.84375 13.644531 18.867188 C 13.410156 18.921875 8.359375 18.875 8.171875 18.816406 C 7.9375 18.738281 7.652344 18.484375 7.503906 18.21875 C 7.390625 18.011719 7.378906 17.929688 7.390625 17.457031 C 7.398438 17.164062 7.402344 16.613281 7.402344 16.230469 C 7.398438 15.847656 7.398438 15.289062 7.398438 14.992188 C 7.402344 14.695312 7.402344 14.121094 7.402344 13.722656 C 7.402344 13.320312 7.402344 12.746094 7.402344 12.445312 C 7.402344 12.144531 7.402344 11.566406 7.402344 11.160156 C 7.402344 10.757812 7.402344 10.179688 7.402344 9.878906 C 7.402344 9.578125 7.410156 9.011719 7.417969 8.617188 C 7.425781 8.226562 7.417969 7.890625 7.402344 7.871094 C 7.382812 7.855469 7.375 7.601562 7.386719 7.308594 C 7.410156 6.601562 7.410156 5.382812 7.386719 4.921875 C 7.351562 4.273438 7.566406 3.839844 8.050781 3.574219 C 8.277344 3.449219 8.34375 3.445312 10.941406 3.421875 C 13.910156 3.394531 13.878906 3.390625 14.265625 3.773438 C 14.542969 4.050781 14.628906 4.308594 14.632812 4.851562 C 14.632812 5.089844 14.621094 5.304688 14.601562 5.320312 C 14.570312 5.351562 14.578125 6.015625 14.621094 7.308594 C 14.628906 7.601562 14.621094 7.855469 14.601562 7.871094 C 14.585938 7.890625 14.578125 8.234375 14.585938 8.632812 C 14.597656 9.03125 14.601562 9.589844 14.601562 9.871094 C 14.601562 10.148438 14.601562 10.722656 14.601562 11.140625 C 14.601562 11.554688 14.601562 12.132812 14.601562 12.414062 C 14.601562 12.699219 14.601562 13.273438 14.601562 13.691406 C 14.601562 14.109375 14.601562 14.683594 14.601562 14.96875 C 14.601562 16.664062 14.605469 17.117188 14.613281 17.453125 C 14.625 18.039062 14.402344 18.5 14 18.726562 Z M 14 18.726562 "/>
<path style=" stroke:none;fill-rule:nonzero;fill:rgb(80%,80%,80%);fill-opacity:1;" d="M 13.777344 17.878906 C 13.777344 18.171875 13.539062 18.40625 13.25 18.40625 C 12.957031 18.40625 12.722656 18.171875 12.722656 17.878906 C 12.722656 17.589844 12.957031 17.351562 13.25 17.351562 C 13.539062 17.351562 13.777344 17.589844 13.777344 17.878906 Z M 13.777344 17.878906 "/>
<path style=" stroke:none;fill-rule:nonzero;fill:rgb(80%,80%,80%);fill-opacity:1;" d="M 10.710938 3.5 L 11.304688 3.5 L 11.304688 4.691406 L 10.710938 4.691406 Z M 10.710938 3.5 "/>
</g>
</svg>