
<svg xmlns="http://www.w3.org/2000/svg" xmlns:xlink="http://www.w3.org/1999/xlink" width="24px" height="24px" viewBox="0 0 24 24" version="1.1">
<g id="surface1">
<path style="fill-rule:nonzero;fill:rgb(100%,100%,100%);fill-opacity:1;stroke-width:27.103765;stroke-linecap:butt;stroke-linejoin:miter;stroke:rgb(17.647059%,53.72549%,80.784314%);stroke-opacity:1;stroke-miterlimit:4;" d="M 88.25 34 L 423.75 34 C 453.75 34 478 58.25 478 88.25 L 478 423.75 C 478 453.75 453.75 478 423.75 478 L 88.25 478 C 58.25 478 34 453.75 34 423.75 L 34 88.25 C 34 58.25 58.25 34 88.25 34 Z M 88.25 34 " transform="matrix(0.046875,0,0,0.046875,0,0)"/>
<path style=" stroke:none;fill-rule:nonzero;fill:rgb(17.647059%,53.72549%,80.784314%);fill-opacity:1;" d="M 8.621094 18.386719 C 5.832031 18.121094 3.882812 17.054688 3.203125 15.425781 C 2.957031 14.835938 2.820312 13.984375 2.878906 13.417969 C 2.964844 12.574219 3.289062 11.75 3.839844 10.980469 C 4.054688 10.6875 4.730469 9.949219 4.789062 9.949219 C 4.808594 9.949219 4.820312 10.03125 4.820312 10.132812 C 4.820312 10.292969 4.804688 10.335938 4.683594 10.480469 C 4.507812 10.6875 4.179688 11.191406 4.050781 11.449219 C 3.660156 12.230469 3.472656 13.152344 3.5625 13.886719 C 3.65625 14.636719 3.945312 15.242188 4.457031 15.753906 C 5.277344 16.578125 6.4375 17.019531 8.335938 17.230469 C 8.839844 17.285156 10.589844 17.285156 11.238281 17.230469 C 13.460938 17.035156 15.582031 16.46875 17.398438 15.589844 C 17.742188 15.425781 18.027344 15.289062 18.035156 15.289062 C 18.042969 15.289062 18.050781 15.578125 18.050781 15.933594 L 18.050781 16.578125 L 17.753906 16.726562 C 16.394531 17.410156 14.429688 17.992188 12.546875 18.261719 C 11.335938 18.4375 9.679688 18.488281 8.621094 18.386719 Z M 14.308594 14.460938 C 14.054688 14.410156 13.714844 14.246094 13.542969 14.085938 C 13.1875 13.757812 13.015625 13.277344 13.015625 12.617188 C 13.015625 12.171875 13.0625 11.929688 13.214844 11.605469 C 13.65625 10.667969 15.039062 10.40625 15.746094 11.121094 C 16.074219 11.453125 16.257812 11.957031 16.257812 12.535156 L 16.257812 12.851562 L 15.128906 12.851562 C 14.511719 12.851562 13.976562 12.859375 13.949219 12.875 C 13.871094 12.902344 13.875 13.117188 13.957031 13.300781 C 14.089844 13.589844 14.378906 13.761719 14.75 13.761719 C 15.039062 13.765625 15.191406 13.722656 15.398438 13.585938 C 15.5 13.515625 15.597656 13.460938 15.617188 13.460938 C 15.664062 13.460938 16.113281 13.890625 16.113281 13.933594 C 16.113281 13.988281 15.882812 14.171875 15.675781 14.285156 C 15.320312 14.476562 14.765625 14.546875 14.308594 14.460938 Z M 15.371094 12.132812 C 15.328125 11.5625 14.796875 11.261719 14.289062 11.523438 C 14.125 11.609375 14.015625 11.722656 13.945312 11.890625 C 13.886719 12.03125 13.871094 12.210938 13.914062 12.253906 C 13.929688 12.269531 14.261719 12.273438 14.660156 12.269531 L 15.378906 12.261719 Z M 6.179688 14.414062 C 5.8125 14.285156 5.628906 14.058594 5.574219 13.671875 C 5.535156 13.421875 5.523438 10.917969 5.558594 10.828125 C 5.578125 10.78125 5.652344 10.773438 6.007812 10.773438 L 6.433594 10.773438 L 6.433594 12.617188 C 6.433594 14.683594 6.457031 14.515625 6.179688 14.414062 Z M 7.347656 14.382812 C 7.335938 14.359375 7.332031 13.539062 7.339844 12.566406 L 7.347656 10.789062 L 8.371094 10.78125 C 9.230469 10.769531 9.425781 10.777344 9.613281 10.828125 C 9.898438 10.902344 10.121094 11.089844 10.238281 11.351562 C 10.324219 11.542969 10.324219 11.550781 10.335938 12.984375 L 10.34375 14.429688 L 9.480469 14.429688 L 9.480469 13.148438 C 9.476562 11.765625 9.464844 11.675781 9.292969 11.546875 C 9.210938 11.488281 9.125 11.472656 8.789062 11.460938 C 8.164062 11.4375 8.226562 11.265625 8.226562 12.976562 L 8.226562 14.429688 L 7.796875 14.429688 C 7.484375 14.429688 7.359375 14.417969 7.347656 14.382812 Z M 11.746094 14.359375 C 11.511719 14.28125 11.304688 14.085938 11.195312 13.839844 L 11.113281 13.65625 L 11.113281 9.785156 L 11.550781 9.777344 L 11.988281 9.765625 L 12 10.261719 L 12.007812 10.753906 L 12.691406 10.789062 L 12.691406 11.433594 L 12.386719 11.453125 C 12.21875 11.464844 12.058594 11.484375 12.035156 11.5 C 12 11.523438 11.992188 11.765625 11.992188 12.511719 L 11.992188 13.492188 L 12.078125 13.59375 C 12.152344 13.683594 12.195312 13.695312 12.425781 13.710938 L 12.691406 13.730469 L 12.691406 14.410156 L 12.3125 14.417969 C 12.023438 14.425781 11.894531 14.414062 11.746094 14.359375 Z M 17.492188 14.328125 C 17.226562 14.234375 17.097656 14.128906 16.984375 13.898438 L 16.882812 13.695312 L 16.882812 9.25 L 17.761719 9.230469 L 17.761719 11.8125 C 17.761719 13.851562 17.753906 14.394531 17.71875 14.390625 C 17.691406 14.390625 17.589844 14.363281 17.492188 14.328125 Z M 18.480469 13.945312 L 18.480469 13.5 L 18.757812 13.296875 C 19.480469 12.765625 20.003906 12.039062 20.207031 11.277344 C 20.304688 10.910156 20.3125 10.210938 20.222656 9.875 C 19.882812 8.640625 18.894531 7.773438 17.3125 7.320312 C 15.78125 6.882812 13.710938 6.855469 11.632812 7.242188 C 10.167969 7.519531 8.625 8.011719 7.390625 8.59375 C 6.910156 8.824219 6.832031 8.832031 6.878906 8.640625 C 6.90625 8.53125 7.042969 8.441406 7.671875 8.117188 C 10.710938 6.539062 14.597656 5.988281 17.492188 6.722656 C 18.515625 6.980469 19.28125 7.347656 19.941406 7.898438 C 20.480469 8.351562 21.019531 9.363281 21.144531 9.980469 C 21.167969 10.085938 21.121094 9.933594 21.140625 9.980469 C 21.207031 10.109375 21.195312 11.070312 21.125 11.292969 C 21.09375 11.390625 21.039062 11.566406 21.007812 11.6875 C 20.921875 11.984375 20.667969 12.515625 20.460938 12.824219 C 20.25 13.140625 19.6875 13.714844 19.371094 13.9375 C 19.125 14.113281 18.601562 14.394531 18.523438 14.394531 C 18.488281 14.394531 18.480469 14.285156 18.480469 13.945312 Z M 5.554688 10.117188 C 5.542969 10.074219 5.539062 9.890625 5.546875 9.714844 L 5.554688 9.390625 L 6.4375 9.371094 L 6.425781 9.777344 L 6.417969 10.179688 L 5.996094 10.191406 C 5.585938 10.199219 5.574219 10.199219 5.554688 10.117188 Z M 18.695312 9.589844 C 8.054688 17.417969 13.375 13.503906 18.695312 9.589844 Z M 18.695312 9.589844 "/>
</g>
</svg>
