<?xml version="1.0" encoding="UTF-8" standalone="no"?>
<svg
   xmlns:dc="http://purl.org/dc/elements/1.1/"
   xmlns:cc="http://creativecommons.org/ns#"
   xmlns:rdf="http://www.w3.org/1999/02/22-rdf-syntax-ns#"
   xmlns:svg="http://www.w3.org/2000/svg"
   xmlns="http://www.w3.org/2000/svg"
   xmlns:sodipodi="http://sodipodi.sourceforge.net/DTD/sodipodi-0.dtd"
   xmlns:inkscape="http://www.inkscape.org/namespaces/inkscape"
   width="24px"
   height="24px"
   viewBox="0 0 24 24"
   version="1.1"
   id="svg9"
   sodipodi:docname="prime-hybrid.svg"
   inkscape:version="0.92.4 5da689c313, 2019-01-14">
  <metadata
     id="metadata15">
    <rdf:RDF>
      <cc:Work
         rdf:about="">
        <dc:format>image/svg+xml</dc:format>
        <dc:type
           rdf:resource="http://purl.org/dc/dcmitype/StillImage" />
      </cc:Work>
    </rdf:RDF>
  </metadata>
  <defs
     id="defs13" />
  <sodipodi:namedview
     pagecolor="#ffffff"
     bordercolor="#666666"
     borderopacity="1"
     objecttolerance="10"
     gridtolerance="10"
     guidetolerance="10"
     inkscape:pageopacity="0"
     inkscape:pageshadow="2"
     inkscape:window-width="1920"
     inkscape:window-height="1017"
     id="namedview11"
     showgrid="false"
     inkscape:zoom="19.666667"
     inkscape:cx="0.96569497"
     inkscape:cy="17.348646"
     inkscape:window-x="0"
     inkscape:window-y="0"
     inkscape:window-maximized="1"
     inkscape:current-layer="svg9" />
  <g
     id="g817">
    <path
       style="fill:#262328;fill-opacity:1;fill-rule:nonzero;stroke:#2b87cc;stroke-width:1.30830884;stroke-linecap:butt;stroke-linejoin:miter;stroke-miterlimit:4;stroke-opacity:1"
       d="M 3.9023438,1.2851563 H 20.097656 c 1.445313,0 2.617188,1.171875 2.617188,2.6171875 V 20.097656 c 0,1.445313 -1.171875,2.617188 -2.617188,2.617188 H 3.9023438 c -1.4453125,0 -2.6171875,-1.171875 -2.6171875,-2.617188 V 3.9023438 c 0,-1.4453125 1.171875,-2.6171875 2.6171875,-2.6171875 z m 0,0"
       id="path2"
       inkscape:connector-curvature="0" />
    <path
       style="fill:#2b87cc;fill-opacity:1;fill-rule:nonzero;stroke:#2b87cc;stroke-width:1.30830884;stroke-linecap:butt;stroke-linejoin:miter;stroke-miterlimit:4;stroke-opacity:1"
       d="m 3.9023438,1.2851563 c -1.4492188,0 -2.6171875,1.1679687 -2.6171875,2.6171875 V 20.097656 c 0,1.449219 1.1679687,2.617188 2.6171875,2.617188 H 11.390625 V 1.2851563 Z m 0,0"
       id="path4"
       inkscape:connector-curvature="0" />
    <path
       style="fill:#ffffff;fill-opacity:1;fill-rule:evenodd;stroke:none"
       d="M 12.027344,6.234375 V 6.375 c 0,-0.046875 0.0039,-0.089844 0.0078,-0.136719 -0.0039,0 -0.0039,0 -0.0078,-0.00391 m 0.480468,1.273437 c -0.05859,0 -0.121093,0.00391 -0.179687,0.00391 -0.101563,0.00391 -0.199219,0.01172 -0.300781,0.019532 C 8.628906,7.804688 5.6875,10.683594 5.6875,10.683594 c 0,0 1.664062,4.816406 6.339844,5.257812 0.222656,0.02344 0.457031,0.04297 0.695312,0.04297 2.464844,0 6.816406,-1.265625 8.679688,-2.828125 -0.273438,-0.277344 -1.605469,-0.910156 -1.933594,-1.171875 -1.960938,1.695313 -3.992188,3.128906 -6.792969,3.128906 -0.226562,0 -0.441406,-0.01563 -0.648437,-0.04297 -3.429688,-0.429687 -4.601563,-4.214843 -4.601563,-4.214843 0,0 1.535157,-2.265625 4.601563,-2.5 0.09766,-0.00781 0.199218,-0.00781 0.300781,-0.011719 0.04297,-0.00391 0.08594,-0.00391 0.128906,-0.00391 2.707031,-0.00781 4.476563,2.386718 4.476563,2.386718 0,0 -1.96875,2.738282 -4.082032,2.738282 -0.304687,0 -0.578124,-0.05469 -0.824218,-0.136719 -1.460938,-0.492187 -1.933594,-2.191406 -1.933594,-2.191406 0,0 0.847656,-1.015625 1.933594,-0.886719 1.082031,0.128906 1.304687,0.609375 1.957031,1.695312 l 1.441406,-1.226562 c 0,0 -1.054687,-1.382812 -2.832031,-1.382812 -0.195312,0 -0.382812,0.015624 -0.566406,0.035156 -2.066406,0.222656 -3.308594,1.601562 -3.308594,1.601562 0,0 0.714844,2.695313 3.308594,3.160156 0.242187,0.03906 0.5,0.06641 0.777344,0.06641 3.011718,0 5.902343,-3.511719 5.902343,-3.511719 0,0 -2.4375,-3.203125 -6.199219,-3.175781"
       id="path6"
       inkscape:connector-curvature="0" />
  </g>
</svg>
