
<svg xmlns="http://www.w3.org/2000/svg" xmlns:xlink="http://www.w3.org/1999/xlink" width="24px" height="24px" viewBox="0 0 24 24" version="1.1">
<g id="surface1">
<path style="fill-rule:nonzero;fill:rgb(15.686275%,14.901961%,16.078431%);fill-opacity:1;stroke-width:27.910587;stroke-linecap:butt;stroke-linejoin:miter;stroke:rgb(49.411765%,76.078431%,2.352941%);stroke-opacity:1;stroke-miterlimit:4;" d="M 83.25 27.416667 L 428.75 27.416667 C 459.583333 27.416667 484.583333 52.416667 484.583333 83.25 L 484.583333 428.75 C 484.583333 459.583333 459.583333 484.583333 428.75 484.583333 L 83.25 484.583333 C 52.416667 484.583333 27.416667 459.583333 27.416667 428.75 L 27.416667 83.25 C 27.416667 52.416667 52.416667 27.416667 83.25 27.416667 Z M 83.25 27.416667 " transform="matrix(0.046875,0,0,0.046875,0,0)"/>
<path style="fill-rule:nonzero;fill:rgb(49.411765%,76.078431%,2.352941%);fill-opacity:1;stroke-width:27.910587;stroke-linecap:butt;stroke-linejoin:miter;stroke:rgb(49.411765%,76.078431%,2.352941%);stroke-opacity:1;stroke-miterlimit:4;" d="M 83.25 27.416667 C 52.333333 27.416667 27.416667 52.333333 27.416667 83.25 L 27.416667 428.75 C 27.416667 459.666667 52.333333 484.583333 83.25 484.583333 L 243 484.583333 L 243 27.416667 Z M 83.25 27.416667 " transform="matrix(0.046875,0,0,0.046875,0,0)"/>
<path style=" stroke:none;fill-rule:evenodd;fill:rgb(100%,100%,100%);fill-opacity:1;" d="M 12.027344 6.234375 L 12.027344 6.375 C 12.027344 6.328125 12.03125 6.285156 12.035156 6.238281 C 12.03125 6.238281 12.03125 6.238281 12.027344 6.234375 M 12.507812 7.507812 C 12.449219 7.507812 12.386719 7.511719 12.328125 7.511719 C 12.226562 7.515625 12.128906 7.523438 12.027344 7.53125 C 8.628906 7.804688 5.6875 10.683594 5.6875 10.683594 C 5.6875 10.683594 7.351562 15.5 12.027344 15.941406 C 12.25 15.964844 12.484375 15.984375 12.722656 15.984375 C 15.1875 15.984375 19.539062 14.71875 21.402344 13.15625 C 21.128906 12.878906 19.796875 12.246094 19.46875 11.984375 C 17.507812 13.679688 15.476562 15.113281 12.675781 15.113281 C 12.449219 15.113281 12.234375 15.097656 12.027344 15.070312 C 8.597656 14.640625 7.425781 10.855469 7.425781 10.855469 C 7.425781 10.855469 8.960938 8.589844 12.027344 8.355469 C 12.125 8.347656 12.226562 8.347656 12.328125 8.34375 C 12.371094 8.339844 12.414062 8.339844 12.457031 8.339844 C 15.164062 8.332031 16.933594 10.726562 16.933594 10.726562 C 16.933594 10.726562 14.964844 13.464844 12.851562 13.464844 C 12.546875 13.464844 12.273438 13.410156 12.027344 13.328125 C 10.566406 12.835938 10.09375 11.136719 10.09375 11.136719 C 10.09375 11.136719 10.941406 10.121094 12.027344 10.25 C 13.109375 10.378906 13.332031 10.859375 13.984375 11.945312 L 15.425781 10.71875 C 15.425781 10.71875 14.371094 9.335938 12.59375 9.335938 C 12.398438 9.335938 12.210938 9.351562 12.027344 9.371094 C 9.960938 9.59375 8.71875 10.972656 8.71875 10.972656 C 8.71875 10.972656 9.433594 13.667969 12.027344 14.132812 C 12.269531 14.171875 12.527344 14.199219 12.804688 14.199219 C 15.816406 14.199219 18.707031 10.6875 18.707031 10.6875 C 18.707031 10.6875 16.269531 7.484375 12.507812 7.511719 "/>
</g>
</svg>
