
<svg xmlns="http://www.w3.org/2000/svg" xmlns:xlink="http://www.w3.org/1999/xlink" width="256px" height="256px" viewBox="0 0 256 256" version="1.1">
<g id="surface1">
<path style="fill-rule:nonzero;fill:rgb(15.686275%,14.901961%,16.078431%);fill-opacity:1;stroke-width:27.910587;stroke-linecap:butt;stroke-linejoin:miter;stroke:rgb(49.411765%,76.078431%,2.352941%);stroke-opacity:1;stroke-miterlimit:4;" d="M 83.21875 27.398438 L 428.78125 27.398438 C 459.609375 27.398438 484.601562 52.390625 484.601562 83.21875 L 484.601562 428.78125 C 484.601562 459.609375 459.609375 484.601562 428.78125 484.601562 L 83.21875 484.601562 C 52.390625 484.601562 27.398438 459.609375 27.398438 428.78125 L 27.398438 83.21875 C 27.398438 52.390625 52.390625 27.398438 83.21875 27.398438 Z M 83.21875 27.398438 " transform="matrix(0.5,0,0,0.5,0,0)"/>
<path style="fill-rule:nonzero;fill:rgb(49.411765%,76.078431%,2.352941%);fill-opacity:1;stroke-width:27.910587;stroke-linecap:butt;stroke-linejoin:miter;stroke:rgb(49.411765%,76.078431%,2.352941%);stroke-opacity:1;stroke-miterlimit:4;" d="M 83.21875 27.398438 C 52.296875 27.398438 27.398438 52.296875 27.398438 83.21875 L 27.398438 428.78125 C 27.398438 459.703125 52.296875 484.601562 83.21875 484.601562 L 242.984375 484.601562 L 242.984375 27.398438 Z M 83.21875 27.398438 " transform="matrix(0.5,0,0,0.5,0,0)"/>
<path style=" stroke:none;fill-rule:evenodd;fill:rgb(100%,100%,100%);fill-opacity:1;" d="M 128.296875 66.515625 L 128.296875 67.984375 C 128.296875 67.496094 128.335938 67.023438 128.375 66.546875 C 128.351562 66.539062 128.316406 66.523438 128.296875 66.515625 M 133.421875 80.09375 C 132.78125 80.101562 132.140625 80.105469 131.5 80.125 C 130.429688 80.164062 129.359375 80.265625 128.296875 80.34375 C 128.289062 80.34375 128.289062 80.34375 128.28125 80.34375 C 92.035156 83.265625 60.683594 113.96875 60.683594 113.96875 C 60.683594 113.96875 78.429688 165.339844 128.296875 170.050781 C 130.6875 170.28125 133.164062 170.488281 135.703125 170.488281 C 162.003906 170.488281 208.398438 157.015625 228.3125 140.347656 C 225.390625 137.386719 211.15625 130.628906 207.6875 127.847656 C 186.75 145.921875 165.101562 161.195312 135.203125 161.195312 C 132.804688 161.195312 130.507812 161.039062 128.296875 160.757812 C 91.703125 156.152344 79.199219 115.800781 79.199219 115.800781 C 79.199219 115.800781 95.566406 91.632812 128.296875 89.132812 C 129.347656 89.054688 130.414062 89.023438 131.5 88.992188 C 131.960938 88.976562 132.414062 88.960938 132.875 88.960938 C 161.730469 88.867188 180.609375 114.414062 180.609375 114.414062 C 180.609375 114.414062 159.609375 143.617188 137.09375 143.617188 C 133.851562 143.617188 130.910156 143.027344 128.296875 142.148438 C 112.703125 136.90625 107.671875 118.773438 107.671875 118.773438 C 107.671875 118.773438 116.71875 107.945312 128.296875 109.335938 C 139.828125 110.726562 142.21875 115.851562 149.15625 127.414062 L 164.546875 114.335938 C 164.546875 114.335938 153.3125 99.601562 134.328125 99.601562 C 132.257812 99.601562 130.234375 99.75 128.296875 99.960938 C 106.242188 102.34375 93 117.023438 93 117.023438 C 93 117.023438 100.640625 145.800781 128.296875 150.730469 C 130.882812 151.1875 133.632812 151.464844 136.578125 151.464844 C 168.707031 151.464844 199.546875 113.980469 199.546875 113.980469 C 199.546875 113.980469 173.546875 79.84375 133.421875 80.105469 "/>
</g>
</svg>
