
<svg xmlns="http://www.w3.org/2000/svg" xmlns:xlink="http://www.w3.org/1999/xlink" width="256px" height="256px" viewBox="0 0 256 256" version="1.1">
<g id="surface1">
<path style="fill-rule:nonzero;fill:rgb(100%,100%,100%);fill-opacity:1;stroke-width:27.103765;stroke-linecap:butt;stroke-linejoin:miter;stroke:rgb(17.647059%,53.72549%,80.784314%);stroke-opacity:1;stroke-miterlimit:4;" d="M 88.21875 34.007812 L 423.78125 34.007812 C 453.71875 34.007812 477.992188 58.28125 477.992188 88.21875 L 477.992188 423.78125 C 477.992188 453.71875 453.71875 477.992188 423.78125 477.992188 L 88.21875 477.992188 C 58.28125 477.992188 34.007812 453.71875 34.007812 423.78125 L 34.007812 88.21875 C 34.007812 58.28125 58.28125 34.007812 88.21875 34.007812 Z M 88.21875 34.007812 " transform="matrix(0.5,0,0,0.5,0,0)"/>
<path style=" stroke:none;fill-rule:nonzero;fill:rgb(17.647059%,53.72549%,80.784314%);fill-opacity:1;" d="M 91.957031 196.144531 C 62.191406 193.285156 41.421875 181.921875 34.171875 164.527344 C 31.546875 158.234375 30.074219 149.15625 30.695312 143.105469 C 31.613281 134.113281 35.085938 125.34375 40.96875 117.132812 C 43.230469 113.984375 50.453125 106.109375 51.085938 106.109375 C 51.273438 106.109375 51.425781 106.992188 51.425781 108.0625 C 51.425781 109.773438 51.238281 110.242188 49.945312 111.792969 C 48.101562 114.007812 44.59375 119.390625 43.210938 122.144531 C 39.03125 130.449219 37.058594 140.3125 38.011719 148.109375 C 38.992188 156.125 42.078125 162.570312 47.558594 168.054688 C 56.304688 176.8125 68.671875 181.523438 88.898438 183.789062 C 94.273438 184.390625 112.96875 184.382812 119.871094 183.777344 C 143.59375 181.6875 166.21875 175.671875 185.59375 166.296875 C 189.242188 164.53125 192.296875 163.085938 192.378906 163.085938 C 192.457031 163.085938 192.523438 166.179688 192.523438 169.960938 L 192.523438 176.84375 L 189.367188 178.429688 C 174.878906 185.71875 153.910156 191.898438 133.828125 194.796875 C 120.914062 196.660156 103.25 197.226562 91.957031 196.144531 Z M 152.617188 154.230469 C 149.914062 153.714844 146.304688 151.949219 144.445312 150.234375 C 140.664062 146.757812 138.820312 141.628906 138.820312 134.597656 C 138.824219 129.84375 139.335938 127.261719 140.976562 123.773438 C 145.65625 113.804688 160.40625 110.988281 167.953125 118.617188 C 171.46875 122.164062 173.402344 127.523438 173.402344 133.703125 L 173.402344 137.082031 L 161.390625 137.082031 C 154.78125 137.082031 149.101562 137.1875 148.773438 137.3125 C 147.945312 137.632812 148 139.925781 148.878906 141.867188 C 150.285156 144.960938 153.390625 146.773438 157.34375 146.804688 C 160.433594 146.832031 162.046875 146.390625 164.25 144.90625 C 165.328125 144.179688 166.382812 143.582031 166.59375 143.582031 C 167.0625 143.582031 171.875 148.171875 171.875 148.617188 C 171.875 149.210938 169.425781 151.179688 167.195312 152.382812 C 163.414062 154.421875 157.515625 155.167969 152.617188 154.230469 Z M 163.9375 129.4375 C 163.5 123.34375 157.84375 120.132812 152.433594 122.90625 C 150.65625 123.820312 149.507812 125.046875 148.757812 126.847656 C 148.140625 128.320312 147.976562 130.265625 148.429688 130.71875 C 148.574219 130.859375 152.144531 130.933594 156.363281 130.875 L 164.035156 130.773438 Z M 65.898438 153.757812 C 61.992188 152.359375 60.039062 149.96875 59.441406 145.835938 C 59.054688 143.148438 58.933594 116.476562 59.304688 115.507812 C 59.5 115.007812 60.289062 114.90625 64.085938 114.90625 L 68.632812 114.90625 L 68.632812 134.597656 C 68.632812 156.632812 68.890625 154.828125 65.898438 153.757812 Z M 78.367188 153.429688 C 78.265625 153.164062 78.226562 144.433594 78.28125 134.023438 L 78.382812 115.09375 L 89.28125 114.984375 C 98.453125 114.886719 100.554688 114.96875 102.5625 115.5 C 105.5625 116.296875 107.9375 118.296875 109.207031 121.101562 C 110.113281 123.113281 110.121094 123.226562 110.234375 138.515625 L 110.351562 153.90625 L 101.132812 153.90625 L 101.113281 140.234375 C 101.089844 125.507812 100.976562 124.554688 99.132812 123.1875 C 98.265625 122.546875 97.339844 122.382812 93.742188 122.242188 C 87.074219 121.988281 87.75 120.160156 87.75 138.433594 L 87.75 153.90625 L 83.148438 153.90625 C 79.820312 153.90625 78.5 153.773438 78.367188 153.429688 Z M 125.289062 153.1875 C 122.785156 152.3125 120.59375 150.246094 119.414062 147.640625 L 118.53125 145.6875 L 118.53125 104.390625 L 123.203125 104.28125 L 127.878906 104.171875 L 127.984375 109.445312 L 128.09375 114.710938 L 135.359375 115.09375 L 135.359375 121.976562 L 132.109375 122.171875 C 130.320312 122.273438 128.640625 122.5 128.378906 122.671875 C 128.015625 122.90625 127.898438 125.492188 127.898438 133.453125 L 127.898438 143.921875 L 128.820312 144.996094 C 129.640625 145.945312 130.070312 146.089844 132.550781 146.257812 L 135.359375 146.453125 L 135.359375 153.71875 L 131.34375 153.804688 C 128.242188 153.875 126.863281 153.734375 125.289062 153.1875 Z M 186.585938 152.835938 C 183.734375 151.851562 182.367188 150.695312 181.171875 148.257812 L 180.09375 146.070312 L 180.09375 98.65625 L 189.460938 98.4375 L 189.460938 125.984375 C 189.460938 147.765625 189.363281 153.523438 188.984375 153.511719 C 188.722656 153.507812 187.640625 153.203125 186.585938 152.835938 Z M 197.109375 148.757812 L 197.109375 143.996094 L 200.074219 141.820312 C 207.789062 136.160156 213.359375 128.414062 215.539062 120.304688 C 216.59375 116.390625 216.667969 108.929688 215.6875 105.34375 C 212.097656 92.179688 201.5625 82.921875 184.65625 78.078125 C 168.335938 73.402344 146.269531 73.109375 124.078125 77.269531 C 108.476562 80.195312 92.015625 85.441406 78.847656 91.6875 C 73.714844 94.117188 72.867188 94.195312 73.371094 92.179688 C 73.664062 91.007812 75.105469 90.050781 81.824219 86.570312 C 114.257812 69.757812 155.703125 63.875 186.59375 71.699219 C 197.484375 74.457031 205.652344 78.390625 212.703125 84.269531 C 218.476562 89.085938 224.226562 99.875 225.546875 106.460938 C 225.773438 107.585938 225.273438 105.941406 225.515625 106.4375 C 226.203125 107.828125 226.0625 118.070312 225.324219 120.449219 C 224.996094 121.5 224.4375 123.390625 224.078125 124.65625 C 223.171875 127.828125 220.460938 133.484375 218.261719 136.785156 C 215.996094 140.183594 210.019531 146.296875 206.644531 148.671875 C 203.984375 150.539062 198.421875 153.523438 197.601562 153.523438 C 197.226562 153.523438 197.109375 152.371094 197.109375 148.757812 Z M 59.257812 107.9375 C 59.136719 107.460938 59.089844 105.515625 59.152344 103.625 L 59.265625 100.183594 L 68.65625 99.96875 L 68.546875 104.28125 L 68.441406 108.59375 L 63.960938 108.703125 C 59.570312 108.808594 59.46875 108.792969 59.257812 107.9375 Z M 199.40625 102.289062 C 85.910156 185.773438 142.65625 144.03125 199.40625 102.289062 Z M 199.40625 102.289062 "/>
</g>
</svg>
