<svg xmlns="http://www.w3.org/2000/svg" xmlns:xlink="http://www.w3.org/1999/xlink" width="48px" height="48px" viewBox="0 0 48 48" version="1.1">
<g id="surface1">
<path style="fill-rule:nonzero;fill:rgb(100%,100%,100%);fill-opacity:1;stroke-width:2.655563;stroke-linecap:butt;stroke-linejoin:miter;stroke:rgb(72.156863%,0%,0%);stroke-opacity:1;stroke-miterlimit:4;" d="M 7.5625 2.25 L 40.437499 2.25 C 43.371092 2.25 45.749999 4.628906 45.749999 7.5625 L 45.749999 40.437499 C 45.749999 43.371092 43.371092 45.749999 40.437499 45.749999 L 7.5625 45.749999 C 4.628906 45.749999 2.25 43.371092 2.25 40.437499 L 2.25 7.5625 C 2.25 4.628906 4.628906 2.25 7.5625 2.25 Z M 7.5625 2.25 " transform="matrix(1,0,0,1,0,0)"/>
<path style=" stroke:none;fill-rule:nonzero;fill:rgb(72.156863%,0%,0%);fill-opacity:1;" d="M 12 11 L 19 18 L 12 25 L 12 35 L 22 35 L 29 28 L 36 35 L 36 11 M 19 18 L 29 18 L 29 27.996094 L 19 28 M 19 18 "/>
</g>
</svg>