
<svg xmlns="http://www.w3.org/2000/svg" xmlns:xlink="http://www.w3.org/1999/xlink" width="48px" height="48px" viewBox="0 0 48 48" version="1.1">
<g id="surface1">
<path style="fill-rule:nonzero;fill:rgb(100%,100%,100%);fill-opacity:1;stroke-width:27.103765;stroke-linecap:butt;stroke-linejoin:miter;stroke:rgb(17.647059%,53.72549%,80.784314%);stroke-opacity:1;stroke-miterlimit:4;" d="M 88.208333 34 L 423.791667 34 C 453.708333 34 478 58.291667 478 88.208333 L 478 423.791667 C 478 453.708333 453.708333 478 423.791667 478 L 88.208333 478 C 58.291667 478 34 453.708333 34 423.791667 L 34 88.208333 C 34 58.291667 58.291667 34 88.208333 34 Z M 88.208333 34 " transform="matrix(0.09375,0,0,0.09375,0,0)"/>
<path style=" stroke:none;fill-rule:nonzero;fill:rgb(17.647059%,53.72549%,80.784314%);fill-opacity:1;" d="M 17.242188 36.777344 C 11.660156 36.242188 7.765625 34.109375 6.40625 30.847656 C 5.914062 29.667969 5.640625 27.96875 5.753906 26.832031 C 5.925781 25.144531 6.578125 23.5 7.683594 21.960938 C 8.105469 21.371094 9.460938 19.894531 9.578125 19.894531 C 9.613281 19.894531 9.640625 20.0625 9.640625 20.261719 C 9.640625 20.582031 9.605469 20.671875 9.363281 20.960938 C 9.019531 21.375 8.359375 22.386719 8.101562 22.902344 C 7.320312 24.460938 6.949219 26.308594 7.128906 27.769531 C 7.3125 29.273438 7.890625 30.480469 8.917969 31.511719 C 10.558594 33.152344 12.875 34.035156 16.667969 34.460938 C 17.675781 34.574219 21.179688 34.570312 22.476562 34.457031 C 26.921875 34.066406 31.164062 32.9375 34.796875 31.179688 C 35.484375 30.851562 36.054688 30.578125 36.070312 30.578125 C 36.085938 30.578125 36.097656 31.160156 36.097656 31.867188 L 36.097656 33.15625 L 35.507812 33.457031 C 32.789062 34.824219 28.859375 35.980469 25.09375 36.523438 C 22.671875 36.875 19.359375 36.980469 17.242188 36.777344 Z M 28.617188 28.917969 C 28.109375 28.820312 27.433594 28.492188 27.082031 28.167969 C 26.375 27.515625 26.027344 26.554688 26.027344 25.238281 C 26.03125 24.34375 26.125 23.863281 26.433594 23.207031 C 27.308594 21.339844 30.074219 20.808594 31.492188 22.242188 C 32.148438 22.90625 32.511719 23.910156 32.511719 25.070312 L 32.511719 25.703125 L 30.261719 25.703125 C 29.023438 25.703125 27.957031 25.722656 27.894531 25.746094 C 27.738281 25.804688 27.75 26.234375 27.914062 26.601562 C 28.179688 27.179688 28.761719 27.519531 29.5 27.527344 C 30.082031 27.53125 30.382812 27.449219 30.796875 27.171875 C 31 27.035156 31.195312 26.921875 31.234375 26.921875 C 31.324219 26.921875 32.226562 27.78125 32.226562 27.867188 C 32.226562 27.976562 31.765625 28.347656 31.347656 28.570312 C 30.640625 28.953125 29.535156 29.09375 28.617188 28.917969 Z M 30.738281 24.269531 C 30.65625 23.125 29.597656 22.523438 28.582031 23.046875 C 28.25 23.214844 28.03125 23.445312 27.890625 23.785156 C 27.777344 24.058594 27.746094 24.425781 27.832031 24.507812 C 27.859375 24.535156 28.527344 24.550781 29.316406 24.539062 L 30.757812 24.519531 Z M 12.355469 28.828125 C 11.625 28.566406 11.257812 28.117188 11.144531 27.34375 C 11.074219 26.839844 11.050781 21.839844 11.121094 21.65625 C 11.15625 21.5625 11.304688 21.542969 12.015625 21.542969 L 12.867188 21.542969 L 12.867188 25.238281 C 12.867188 29.367188 12.917969 29.03125 12.355469 28.828125 Z M 14.695312 28.769531 C 14.675781 28.71875 14.667969 27.082031 14.679688 25.128906 L 14.695312 21.582031 L 16.742188 21.558594 C 18.460938 21.542969 18.855469 21.554688 19.230469 21.65625 C 19.792969 21.804688 20.238281 22.179688 20.476562 22.707031 C 20.644531 23.082031 20.648438 23.105469 20.667969 25.972656 L 20.691406 28.859375 L 18.960938 28.859375 L 18.957031 26.292969 C 18.953125 23.53125 18.933594 23.355469 18.585938 23.097656 C 18.425781 22.976562 18.25 22.945312 17.578125 22.921875 C 16.328125 22.871094 16.453125 22.53125 16.453125 25.957031 L 16.453125 28.859375 L 15.589844 28.859375 C 14.964844 28.859375 14.71875 28.832031 14.695312 28.769531 Z M 23.492188 28.722656 C 23.023438 28.558594 22.613281 28.171875 22.390625 27.683594 L 22.226562 27.316406 L 22.226562 19.574219 L 23.101562 19.554688 L 23.976562 19.53125 L 24.015625 21.507812 L 25.378906 21.582031 L 25.378906 22.871094 L 24.769531 22.90625 C 24.433594 22.925781 24.121094 22.96875 24.070312 23 C 24.003906 23.046875 23.980469 23.53125 23.980469 25.023438 L 23.980469 26.984375 L 24.152344 27.1875 C 24.308594 27.363281 24.386719 27.390625 24.851562 27.421875 L 25.378906 27.460938 L 25.378906 28.820312 L 24.625 28.839844 C 24.046875 28.851562 23.785156 28.824219 23.492188 28.722656 Z M 34.984375 28.65625 C 34.449219 28.472656 34.195312 28.253906 33.96875 27.796875 L 33.769531 27.386719 L 33.769531 18.496094 L 35.523438 18.457031 L 35.523438 23.621094 C 35.523438 27.707031 35.503906 28.785156 35.433594 28.785156 C 35.386719 28.78125 35.183594 28.726562 34.984375 28.65625 Z M 36.957031 27.890625 L 36.957031 27 L 37.515625 26.589844 C 38.960938 25.53125 40.003906 24.078125 40.414062 22.558594 C 40.609375 21.824219 40.625 20.425781 40.441406 19.753906 C 39.769531 17.285156 37.792969 15.546875 34.625 14.640625 C 31.5625 13.761719 27.425781 13.707031 23.265625 14.488281 C 20.339844 15.035156 17.253906 16.019531 14.785156 17.191406 C 13.820312 17.648438 13.664062 17.660156 13.757812 17.285156 C 13.8125 17.0625 14.082031 16.882812 15.34375 16.230469 C 21.421875 13.078125 29.195312 11.976562 34.988281 13.445312 C 37.027344 13.960938 38.558594 14.699219 39.882812 15.800781 C 40.964844 16.703125 42.042969 18.726562 42.289062 19.960938 C 42.332031 20.171875 42.238281 19.863281 42.285156 19.957031 C 42.414062 20.21875 42.386719 22.136719 42.25 22.585938 C 42.1875 22.78125 42.082031 23.136719 42.015625 23.375 C 41.84375 23.96875 41.335938 25.027344 40.925781 25.648438 C 40.5 26.285156 39.378906 27.429688 38.746094 27.875 C 38.246094 28.226562 37.203125 28.785156 37.050781 28.785156 C 36.980469 28.785156 36.957031 28.570312 36.957031 27.890625 Z M 11.109375 20.238281 C 11.089844 20.148438 11.078125 19.785156 11.089844 19.429688 L 11.113281 18.785156 L 12.875 18.742188 L 12.851562 19.554688 L 12.832031 20.363281 L 11.992188 20.382812 C 11.167969 20.402344 11.152344 20.398438 11.109375 20.238281 Z M 37.386719 19.179688 C 16.109375 34.832031 26.75 27.003906 37.386719 19.179688 Z M 37.386719 19.179688 "/>
</g>
</svg>
