
<svg xmlns="http://www.w3.org/2000/svg" xmlns:xlink="http://www.w3.org/1999/xlink" width="48px" height="48px" viewBox="0 0 48 48" version="1.1">
<g id="surface1">
<path style="fill-rule:nonzero;fill:rgb(15.686275%,14.901961%,16.078431%);fill-opacity:1;stroke-width:27.910587;stroke-linecap:butt;stroke-linejoin:miter;stroke:rgb(49.411765%,76.078431%,2.352941%);stroke-opacity:1;stroke-miterlimit:4;" d="M 83.208333 27.416667 L 428.791667 27.416667 C 459.625 27.416667 484.583333 52.375 484.583333 83.208333 L 484.583333 428.791667 C 484.583333 459.625 459.625 484.583333 428.791667 484.583333 L 83.208333 484.583333 C 52.375 484.583333 27.416667 459.625 27.416667 428.791667 L 27.416667 83.208333 C 27.416667 52.375 52.375 27.416667 83.208333 27.416667 Z M 83.208333 27.416667 " transform="matrix(0.09375,0,0,0.09375,0,0)"/>
<path style="fill-rule:nonzero;fill:rgb(49.411765%,76.078431%,2.352941%);fill-opacity:1;stroke-width:27.910587;stroke-linecap:butt;stroke-linejoin:miter;stroke:rgb(49.411765%,76.078431%,2.352941%);stroke-opacity:1;stroke-miterlimit:4;" d="M 83.208333 27.416667 C 52.291667 27.416667 27.416667 52.291667 27.416667 83.208333 L 27.416667 428.791667 C 27.416667 459.708333 52.291667 484.583333 83.208333 484.583333 L 243 484.583333 L 243 27.416667 Z M 83.208333 27.416667 " transform="matrix(0.09375,0,0,0.09375,0,0)"/>
<path style=" stroke:none;fill-rule:evenodd;fill:rgb(100%,100%,100%);fill-opacity:1;" d="M 24.054688 12.472656 L 24.054688 12.746094 C 24.054688 12.65625 24.0625 12.566406 24.070312 12.476562 C 24.066406 12.476562 24.058594 12.472656 24.054688 12.472656 M 25.015625 15.019531 C 24.898438 15.019531 24.777344 15.019531 24.65625 15.023438 C 24.457031 15.03125 24.253906 15.050781 24.054688 15.066406 C 24.054688 15.066406 24.054688 15.066406 24.050781 15.066406 C 17.257812 15.613281 11.378906 21.371094 11.378906 21.371094 C 11.378906 21.371094 14.707031 31 24.054688 31.882812 C 24.503906 31.929688 24.96875 31.964844 25.445312 31.964844 C 30.375 31.964844 39.074219 29.441406 42.808594 26.316406 C 42.261719 25.761719 39.59375 24.492188 38.941406 23.972656 C 35.015625 27.359375 30.957031 30.222656 25.351562 30.222656 C 24.902344 30.222656 24.46875 30.195312 24.054688 30.140625 C 17.195312 29.277344 14.851562 21.710938 14.851562 21.710938 C 14.851562 21.710938 17.917969 17.179688 24.054688 16.710938 C 24.253906 16.699219 24.453125 16.691406 24.65625 16.6875 C 24.742188 16.683594 24.828125 16.679688 24.914062 16.679688 C 30.324219 16.664062 33.863281 21.453125 33.863281 21.453125 C 33.863281 21.453125 29.925781 26.929688 25.703125 26.929688 C 25.097656 26.929688 24.546875 26.816406 24.054688 26.652344 C 21.132812 25.671875 20.1875 22.269531 20.1875 22.269531 C 20.1875 22.269531 21.886719 20.238281 24.054688 20.5 C 26.21875 20.761719 26.664062 21.722656 27.964844 23.890625 L 30.851562 21.4375 C 30.851562 21.4375 28.746094 18.675781 25.1875 18.675781 C 24.796875 18.675781 24.417969 18.703125 24.054688 18.742188 C 19.921875 19.1875 17.4375 21.941406 17.4375 21.941406 C 17.4375 21.941406 18.871094 27.335938 24.054688 28.261719 C 24.539062 28.347656 25.054688 28.398438 25.609375 28.398438 C 31.632812 28.398438 37.414062 21.371094 37.414062 21.371094 C 37.414062 21.371094 32.539062 14.972656 25.015625 15.019531 "/>
</g>
</svg>
