<svg xmlns="http://www.w3.org/2000/svg" xmlns:xlink="http://www.w3.org/1999/xlink" width="512px" height="512px" viewBox="0 0 512 512" version="1.1">
<g id="surface1">
<path style="fill-rule:nonzero;fill:rgb(100%,100%,100%);fill-opacity:1;stroke-width:2.655563;stroke-linecap:butt;stroke-linejoin:miter;stroke:rgb(72.156863%,0%,0%);stroke-opacity:1;stroke-miterlimit:4;" d="M 7.560791 2.249634 L 40.439208 2.249634 C 43.372557 2.249634 45.750365 4.627441 45.750365 7.560791 L 45.750365 40.439208 C 45.750365 43.372557 43.372557 45.750365 40.439208 45.750365 L 7.560791 45.750365 C 4.627441 45.750365 2.249634 43.372557 2.249634 40.439208 L 2.249634 7.560791 C 2.249634 4.627441 4.627441 2.249634 7.560791 2.249634 Z M 7.560791 2.249634 " transform="matrix(10.666667,0,0,10.666667,0,0)"/>
<path style=" stroke:none;fill-rule:nonzero;fill:rgb(72.156863%,0%,0%);fill-opacity:1;" d="M 128 117.332031 L 202.667969 192 L 128 266.667969 L 128 373.332031 L 234.667969 373.332031 L 309.332031 298.667969 L 384 373.332031 L 384 117.332031 M 202.667969 192 L 309.332031 192 L 309.332031 298.625 L 202.667969 298.667969 M 202.667969 192 "/>
</g>
</svg>