
<svg xmlns="http://www.w3.org/2000/svg" xmlns:xlink="http://www.w3.org/1999/xlink" width="64px" height="64px" viewBox="0 0 64 64" version="1.1">
<g id="surface1">
<path style="fill-rule:nonzero;fill:rgb(15.686275%,14.901961%,16.078431%);fill-opacity:1;stroke-width:27.910587;stroke-linecap:butt;stroke-linejoin:miter;stroke:rgb(49.411765%,76.078431%,2.352941%);stroke-opacity:1;stroke-miterlimit:4;" d="M 83.21875 27.40625 L 428.78125 27.40625 C 459.625 27.40625 484.59375 52.375 484.59375 83.21875 L 484.59375 428.78125 C 484.59375 459.625 459.625 484.59375 428.78125 484.59375 L 83.21875 484.59375 C 52.375 484.59375 27.40625 459.625 27.40625 428.78125 L 27.40625 83.21875 C 27.40625 52.375 52.375 27.40625 83.21875 27.40625 Z M 83.21875 27.40625 " transform="matrix(0.125,0,0,0.125,0,0)"/>
<path style="fill-rule:nonzero;fill:rgb(49.411765%,76.078431%,2.352941%);fill-opacity:1;stroke-width:27.910587;stroke-linecap:butt;stroke-linejoin:miter;stroke:rgb(49.411765%,76.078431%,2.352941%);stroke-opacity:1;stroke-miterlimit:4;" d="M 83.21875 27.40625 C 52.3125 27.40625 27.40625 52.3125 27.40625 83.21875 L 27.40625 428.78125 C 27.40625 459.6875 52.3125 484.59375 83.21875 484.59375 L 242.96875 484.59375 L 242.96875 27.40625 Z M 83.21875 27.40625 " transform="matrix(0.125,0,0,0.125,0,0)"/>
<path style=" stroke:none;fill-rule:evenodd;fill:rgb(100%,100%,100%);fill-opacity:1;" d="M 32.074219 16.628906 L 32.074219 16.996094 C 32.074219 16.875 32.082031 16.753906 32.09375 16.636719 C 32.085938 16.632812 32.078125 16.628906 32.074219 16.628906 M 33.355469 20.023438 C 33.195312 20.023438 33.035156 20.027344 32.875 20.03125 C 32.605469 20.039062 32.339844 20.066406 32.074219 20.085938 C 32.070312 20.085938 32.070312 20.085938 32.070312 20.085938 C 23.007812 20.816406 15.171875 28.492188 15.171875 28.492188 C 15.171875 28.492188 19.609375 41.335938 32.074219 42.511719 C 32.671875 42.570312 33.292969 42.621094 33.925781 42.621094 C 40.5 42.621094 52.101562 39.253906 57.078125 35.085938 C 56.347656 34.347656 52.789062 32.65625 51.921875 31.960938 C 46.6875 36.480469 41.273438 40.296875 33.800781 40.296875 C 33.203125 40.296875 32.628906 40.257812 32.074219 40.1875 C 22.925781 39.039062 19.800781 28.949219 19.800781 28.949219 C 19.800781 28.949219 23.890625 22.90625 32.074219 22.28125 C 32.335938 22.265625 32.601562 22.253906 32.875 22.246094 C 32.988281 22.242188 33.101562 22.242188 33.21875 22.238281 C 40.433594 22.21875 45.152344 28.601562 45.152344 28.601562 C 45.152344 28.601562 39.902344 35.902344 34.273438 35.902344 C 33.460938 35.902344 32.726562 35.757812 32.074219 35.535156 C 28.175781 34.226562 26.917969 29.691406 26.917969 29.691406 C 26.917969 29.691406 29.179688 26.984375 32.074219 27.332031 C 34.957031 27.683594 35.554688 28.960938 37.289062 31.855469 L 41.136719 28.582031 C 41.136719 28.582031 38.328125 24.898438 33.582031 24.898438 C 33.066406 24.898438 32.558594 24.9375 32.074219 24.992188 C 26.558594 25.585938 23.25 29.257812 23.25 29.257812 C 23.25 29.257812 25.160156 36.449219 32.074219 37.683594 C 32.722656 37.796875 33.40625 37.867188 34.144531 37.867188 C 42.175781 37.867188 49.886719 28.496094 49.886719 28.496094 C 49.886719 28.496094 43.386719 19.960938 33.355469 20.027344 "/>
</g>
</svg>
