<svg xmlns="http://www.w3.org/2000/svg" xmlns:xlink="http://www.w3.org/1999/xlink" width="96px" height="96px" viewBox="0 0 96 96" version="1.1">
<g id="surface1">
<path style="fill-rule:nonzero;fill:rgb(100%,100%,100%);fill-opacity:1;stroke-width:2.655563;stroke-linecap:butt;stroke-linejoin:miter;stroke:rgb(72.156863%,0%,0%);stroke-opacity:1;stroke-miterlimit:4;" d="M 7.560547 2.25 L 40.439452 2.25 C 43.373046 2.25 45.749999 4.626953 45.749999 7.560547 L 45.749999 40.439452 C 45.749999 43.373046 43.373046 45.749999 40.439452 45.749999 L 7.560547 45.749999 C 4.626953 45.749999 2.25 43.373046 2.25 40.439452 L 2.25 7.560547 C 2.25 4.626953 4.626953 2.25 7.560547 2.25 Z M 7.560547 2.25 " transform="matrix(2,0,0,2,0,0)"/>
<path style=" stroke:none;fill-rule:nonzero;fill:rgb(72.156863%,0%,0%);fill-opacity:1;" d="M 24 22 L 38 36 L 24 50 L 24 70 L 44 70 L 58 56 L 72 70 L 72 22 M 38 36 L 58 36 L 58 55.992188 L 38 56 M 38 36 "/>
</g>
</svg>