
<svg xmlns="http://www.w3.org/2000/svg" xmlns:xlink="http://www.w3.org/1999/xlink" width="96px" height="96px" viewBox="0 0 96 96" version="1.1">
<g id="surface1">
<path style="fill-rule:nonzero;fill:rgb(15.686275%,14.901961%,16.078431%);fill-opacity:1;stroke-width:27.910587;stroke-linecap:butt;stroke-linejoin:miter;stroke:rgb(49.411765%,76.078431%,2.352941%);stroke-opacity:1;stroke-miterlimit:4;" d="M 83.208333 27.395833 L 428.770833 27.395833 C 459.604167 27.395833 484.604167 52.395833 484.604167 83.208333 L 484.604167 428.770833 C 484.604167 459.604167 459.604167 484.604167 428.770833 484.604167 L 83.208333 484.604167 C 52.395833 484.604167 27.395833 459.604167 27.395833 428.770833 L 27.395833 83.208333 C 27.395833 52.395833 52.395833 27.395833 83.208333 27.395833 Z M 83.208333 27.395833 " transform="matrix(0.1875,0,0,0.1875,0,0)"/>
<path style="fill-rule:nonzero;fill:rgb(49.411765%,76.078431%,2.352941%);fill-opacity:1;stroke-width:27.910587;stroke-linecap:butt;stroke-linejoin:miter;stroke:rgb(49.411765%,76.078431%,2.352941%);stroke-opacity:1;stroke-miterlimit:4;" d="M 83.208333 27.395833 C 52.291667 27.395833 27.395833 52.291667 27.395833 83.208333 L 27.395833 428.770833 C 27.395833 459.708333 52.291667 484.604167 83.208333 484.604167 L 242.979167 484.604167 L 242.979167 27.395833 Z M 83.208333 27.395833 " transform="matrix(0.1875,0,0,0.1875,0,0)"/>
<path style=" stroke:none;fill-rule:evenodd;fill:rgb(100%,100%,100%);fill-opacity:1;" d="M 48.109375 24.945312 L 48.109375 25.492188 C 48.109375 25.3125 48.125 25.132812 48.140625 24.953125 C 48.132812 24.953125 48.117188 24.945312 48.109375 24.945312 M 50.03125 30.035156 C 49.792969 30.039062 49.554688 30.039062 49.3125 30.046875 C 48.910156 30.0625 48.507812 30.097656 48.109375 30.128906 C 48.109375 30.128906 48.109375 30.128906 48.105469 30.128906 C 34.511719 31.222656 22.757812 42.738281 22.757812 42.738281 C 22.757812 42.738281 29.410156 62.003906 48.109375 63.769531 C 49.007812 63.855469 49.9375 63.933594 50.886719 63.933594 C 60.75 63.933594 78.148438 58.878906 85.617188 52.628906 C 84.519531 51.519531 79.183594 48.984375 77.882812 47.941406 C 70.03125 54.722656 61.914062 60.449219 50.699219 60.449219 C 49.800781 60.449219 48.941406 60.390625 48.109375 60.285156 C 34.390625 58.558594 29.699219 43.425781 29.699219 43.425781 C 29.699219 43.425781 35.835938 34.363281 48.109375 33.425781 C 48.503906 33.394531 48.90625 33.382812 49.3125 33.371094 C 49.484375 33.367188 49.65625 33.359375 49.828125 33.359375 C 60.648438 33.324219 67.726562 42.90625 67.726562 42.90625 C 67.726562 42.90625 59.851562 53.855469 51.410156 53.855469 C 50.195312 53.855469 49.089844 53.636719 48.109375 53.304688 C 42.265625 51.339844 40.375 44.539062 40.375 44.539062 C 40.375 44.539062 43.769531 40.480469 48.109375 41 C 52.4375 41.523438 53.332031 43.445312 55.933594 47.78125 L 61.703125 42.875 C 61.703125 42.875 57.492188 37.351562 50.371094 37.351562 C 49.597656 37.351562 48.835938 37.40625 48.109375 37.484375 C 39.839844 38.378906 34.875 43.882812 34.875 43.882812 C 34.875 43.882812 37.742188 54.675781 48.109375 56.523438 C 49.082031 56.695312 50.113281 56.800781 51.214844 56.800781 C 63.265625 56.800781 74.828125 42.742188 74.828125 42.742188 C 74.828125 42.742188 65.078125 29.941406 50.03125 30.039062 "/>
</g>
</svg>
