<?xml version="1.0" encoding="UTF-8"?>
<svg xmlns="http://www.w3.org/2000/svg" xmlns:xlink="http://www.w3.org/1999/xlink" width="512pt" height="512pt" viewBox="0 0 512 512" version="1.1">
<g id="surface1">
<path style="fill-rule:nonzero;fill:rgb(15.686275%,14.901961%,16.078431%);fill-opacity:1;stroke-width:27.910587;stroke-linecap:butt;stroke-linejoin:miter;stroke:rgb(49.411765%,76.078431%,2.352941%);stroke-opacity:1;stroke-miterlimit:4;" d="M 83.21875 27.398438 L 428.78125 27.398438 C 459.609375 27.398438 484.601562 52.390625 484.601562 83.21875 L 484.601562 428.78125 C 484.601562 459.609375 459.609375 484.601562 428.78125 484.601562 L 83.21875 484.601562 C 52.390625 484.601562 27.398438 459.609375 27.398438 428.78125 L 27.398438 83.21875 C 27.398438 52.390625 52.390625 27.398438 83.21875 27.398438 Z M 83.21875 27.398438 "/>
<path style="fill-rule:nonzero;fill:rgb(49.411765%,76.078431%,2.352941%);fill-opacity:1;stroke-width:27.910587;stroke-linecap:butt;stroke-linejoin:miter;stroke:rgb(49.411765%,76.078431%,2.352941%);stroke-opacity:1;stroke-miterlimit:4;" d="M 83.21875 27.398438 C 52.296875 27.398438 27.398438 52.296875 27.398438 83.21875 L 27.398438 428.78125 C 27.398438 459.703125 52.296875 484.601562 83.21875 484.601562 L 242.980469 484.601562 L 242.980469 27.398438 Z M 83.21875 27.398438 "/>
<path style=" stroke:none;fill-rule:evenodd;fill:rgb(100%,100%,100%);fill-opacity:1;" d="M 256.589844 133.03125 L 256.589844 135.96875 C 256.589844 134.992188 256.667969 134.046875 256.746094 133.09375 C 256.699219 133.078125 256.632812 133.046875 256.589844 133.03125 M 266.839844 160.191406 C 265.566406 160.199219 264.285156 160.210938 262.996094 160.253906 C 260.855469 160.324219 258.71875 160.527344 256.589844 160.691406 C 256.574219 160.691406 256.574219 160.691406 256.558594 160.691406 C 184.070312 166.527344 121.367188 227.941406 121.367188 227.941406 C 121.367188 227.941406 156.863281 330.679688 256.589844 340.101562 C 261.375 340.5625 266.332031 340.976562 271.402344 340.976562 C 324.007812 340.976562 416.800781 314.027344 456.621094 280.695312 C 450.777344 274.773438 422.3125 261.257812 415.371094 255.695312 C 373.496094 291.847656 330.203125 322.386719 270.402344 322.386719 C 265.609375 322.386719 261.019531 322.074219 256.589844 321.511719 C 183.410156 312.304688 158.398438 231.601562 158.398438 231.601562 C 158.398438 231.601562 191.132812 183.261719 256.589844 178.261719 C 258.695312 178.113281 260.828125 178.046875 262.996094 177.980469 C 263.921875 177.949219 264.828125 177.921875 265.746094 177.917969 C 323.460938 177.738281 361.214844 228.824219 361.214844 228.824219 C 361.214844 228.824219 319.21875 287.234375 274.183594 287.234375 C 267.703125 287.234375 261.820312 286.054688 256.589844 284.296875 C 225.410156 273.816406 215.339844 237.546875 215.339844 237.546875 C 215.339844 237.546875 233.441406 215.890625 256.589844 218.671875 C 279.660156 221.457031 284.4375 231.699219 298.308594 254.828125 L 329.089844 228.671875 C 329.089844 228.671875 306.621094 199.199219 268.652344 199.199219 C 264.519531 199.199219 260.464844 199.503906 256.589844 199.921875 C 212.480469 204.6875 186 234.050781 186 234.050781 C 186 234.050781 201.285156 291.601562 256.589844 301.460938 C 261.769531 302.375 267.265625 302.929688 273.152344 302.929688 C 337.414062 302.929688 399.09375 227.960938 399.09375 227.960938 C 399.09375 227.960938 347.09375 159.691406 266.84375 160.210938 "/>
</g>
</svg>
