<?xml version="1.0" encoding="UTF-8" standalone="no"?>
<svg
   xmlns:dc="http://purl.org/dc/elements/1.1/"
   xmlns:cc="http://creativecommons.org/ns#"
   xmlns:rdf="http://www.w3.org/1999/02/22-rdf-syntax-ns#"
   xmlns:svg="http://www.w3.org/2000/svg"
   xmlns="http://www.w3.org/2000/svg"
   xmlns:sodipodi="http://sodipodi.sourceforge.net/DTD/sodipodi-0.dtd"
   xmlns:inkscape="http://www.inkscape.org/namespaces/inkscape"
   width="512pt"
   height="512pt"
   viewBox="0 0 512 512"
   version="1.1"
   id="svg9"
   sodipodi:docname="prime-hybrid.svg"
   inkscape:version="0.92.4 5da689c313, 2019-01-14">
  <metadata
     id="metadata15">
    <rdf:RDF>
      <cc:Work
         rdf:about="">
        <dc:format>image/svg+xml</dc:format>
        <dc:type
           rdf:resource="http://purl.org/dc/dcmitype/StillImage" />
        <dc:title />
      </cc:Work>
    </rdf:RDF>
  </metadata>
  <defs
     id="defs13" />
  <sodipodi:namedview
     pagecolor="#ffffff"
     bordercolor="#666666"
     borderopacity="1"
     objecttolerance="10"
     gridtolerance="10"
     guidetolerance="10"
     inkscape:pageopacity="0"
     inkscape:pageshadow="2"
     inkscape:window-width="1920"
     inkscape:window-height="1017"
     id="namedview11"
     showgrid="false"
     inkscape:zoom="0.5"
     inkscape:cx="-219.20652"
     inkscape:cy="310.09912"
     inkscape:window-x="0"
     inkscape:window-y="0"
     inkscape:window-maximized="1"
     inkscape:current-layer="svg9" />
  <g
     id="g817">
    <path
       style="fill:#262328;fill-opacity:1;fill-rule:nonzero;stroke:#2b87cc;stroke-width:27.91058731;stroke-linecap:butt;stroke-linejoin:miter;stroke-miterlimit:4;stroke-opacity:1"
       d="m 83.21875,27.398438 h 345.5625 c 30.82812,0 55.82031,24.992187 55.82031,55.820312 v 345.5625 c 0,30.82812 -24.99219,55.82031 -55.82031,55.82031 H 83.21875 c -30.828125,0 -55.820312,-24.99219 -55.820312,-55.82031 V 83.21875 c 0,-30.828125 24.992187,-55.820312 55.820312,-55.820312 z m 0,0"
       id="path2"
       inkscape:connector-curvature="0" />
    <path
       style="fill:#2b87cc;fill-opacity:1;fill-rule:nonzero;stroke:#2b87cc;stroke-width:27.91058731;stroke-linecap:butt;stroke-linejoin:miter;stroke-miterlimit:4;stroke-opacity:1"
       d="m 83.21875,27.398438 c -30.921875,0 -55.820312,24.898437 -55.820312,55.820312 v 345.5625 c 0,30.92187 24.898437,55.82031 55.820312,55.82031 H 242.98047 V 27.398438 Z m 0,0"
       id="path4"
       inkscape:connector-curvature="0" />
    <path
       style="fill:#ffffff;fill-opacity:1;fill-rule:evenodd;stroke:none"
       d="m 256.58984,133.03125 v 2.9375 c 0,-0.97656 0.0781,-1.92188 0.15625,-2.875 -0.0469,-0.0156 -0.11328,-0.0469 -0.15625,-0.0625 m 10.25,27.16016 c -1.27343,0.008 -2.55468,0.0195 -3.84375,0.0625 -2.14062,0.0703 -4.27734,0.27343 -6.40625,0.4375 -0.0156,0 -0.0156,0 -0.0312,0 -72.48828,5.83593 -135.1914,67.25 -135.1914,67.25 0,0 35.49609,102.73828 135.22265,112.16015 4.78516,0.46094 9.74219,0.875 14.8125,0.875 52.60547,0 145.39844,-26.94922 185.21875,-60.28125 -5.84375,-5.92187 -34.30859,-19.4375 -41.25,-25 -41.875,36.15235 -85.16797,66.69141 -144.96875,66.69141 -4.79297,0 -9.38281,-0.3125 -13.8125,-0.875 -73.17968,-9.20703 -98.1914,-89.91016 -98.1914,-89.91016 0,0 32.73437,-48.33984 98.1914,-53.33984 2.10547,-0.14844 4.23828,-0.21485 6.40625,-0.28125 0.92578,-0.0312 1.83203,-0.0586 2.75,-0.0625 57.71485,-0.17969 95.46875,50.90625 95.46875,50.90625 0,0 -41.99609,58.41015 -87.03125,58.41015 -6.48047,0 -12.36328,-1.17968 -17.59375,-2.9375 -31.17968,-10.48046 -41.25,-46.75 -41.25,-46.75 0,0 18.10157,-21.65625 41.25,-18.875 23.07032,2.78516 27.84766,13.02735 41.71875,36.15625 l 30.78125,-26.15625 c 0,0 -22.46875,-29.47265 -60.4375,-29.47265 -4.13281,0 -8.1875,0.30469 -12.0625,0.72265 C 212.48047,204.6875 186,234.05078 186,234.05078 c 0,0 15.28516,57.55078 70.58984,67.41016 5.17969,0.91406 10.67578,1.46875 16.5625,1.46875 64.26172,0 125.94141,-74.96875 125.94141,-74.96875 0,0 -52,-68.26953 -132.25,-67.75"
       id="path6"
       inkscape:connector-curvature="0" />
  </g>
</svg>
