
<svg xmlns="http://www.w3.org/2000/svg" xmlns:xlink="http://www.w3.org/1999/xlink" width="96px" height="96px" viewBox="0 0 96 96" version="1.1">
<g id="surface1">
<path style="fill-rule:nonzero;fill:rgb(100%,100%,100%);fill-opacity:1;stroke-width:27.103765;stroke-linecap:butt;stroke-linejoin:miter;stroke:rgb(17.647059%,53.72549%,80.784314%);stroke-opacity:1;stroke-miterlimit:4;" d="M 88.208333 34 L 423.791667 34 C 453.729167 34 478 58.270833 478 88.208333 L 478 423.791667 C 478 453.729167 453.729167 478 423.791667 478 L 88.208333 478 C 58.270833 478 34 453.729167 34 423.791667 L 34 88.208333 C 34 58.270833 58.270833 34 88.208333 34 Z M 88.208333 34 " transform="matrix(0.1875,0,0,0.1875,0,0)"/>
<path style=" stroke:none;fill-rule:nonzero;fill:rgb(17.647059%,53.72549%,80.784314%);fill-opacity:1;" d="M 34.484375 73.554688 C 23.320312 72.480469 15.53125 68.21875 12.8125 61.699219 C 11.832031 59.335938 11.277344 55.933594 11.511719 53.664062 C 11.855469 50.292969 13.15625 47.003906 15.363281 43.925781 C 16.210938 42.742188 18.921875 39.789062 19.15625 39.789062 C 19.226562 39.789062 19.285156 40.121094 19.285156 40.523438 C 19.285156 41.164062 19.214844 41.339844 18.730469 41.921875 C 18.039062 42.753906 16.722656 44.773438 16.203125 45.804688 C 14.636719 48.917969 13.898438 52.617188 14.253906 55.539062 C 14.621094 58.546875 15.777344 60.964844 17.835938 63.019531 C 21.113281 66.304688 25.753906 68.070312 33.335938 68.921875 C 35.351562 69.144531 42.363281 69.144531 44.953125 68.917969 C 53.847656 68.132812 62.332031 65.878906 69.597656 62.363281 C 70.964844 61.699219 72.113281 61.15625 72.140625 61.15625 C 72.171875 61.15625 72.195312 62.316406 72.195312 63.734375 L 72.195312 66.316406 L 71.011719 66.910156 C 65.578125 69.644531 57.714844 71.960938 50.1875 73.050781 C 45.34375 73.746094 38.71875 73.960938 34.484375 73.554688 Z M 57.230469 57.835938 C 56.21875 57.644531 54.863281 56.980469 54.167969 56.339844 C 52.75 55.035156 52.058594 53.109375 52.058594 50.472656 C 52.058594 48.691406 52.25 47.722656 52.867188 46.414062 C 54.621094 42.675781 60.152344 41.621094 62.984375 44.480469 C 64.300781 45.8125 65.027344 47.820312 65.027344 50.136719 L 65.027344 51.40625 L 60.519531 51.40625 C 58.042969 51.40625 55.914062 51.445312 55.789062 51.492188 C 55.480469 51.613281 55.5 52.472656 55.828125 53.199219 C 56.355469 54.359375 57.519531 55.039062 59.003906 55.050781 C 60.164062 55.0625 60.765625 54.894531 61.59375 54.339844 C 62 54.066406 62.394531 53.84375 62.472656 53.84375 C 62.648438 53.84375 64.453125 55.5625 64.453125 55.730469 C 64.453125 55.953125 63.535156 56.691406 62.699219 57.144531 C 61.28125 57.90625 59.066406 58.1875 57.230469 57.835938 Z M 61.476562 48.539062 C 61.3125 46.253906 59.191406 45.050781 57.164062 46.089844 C 56.496094 46.433594 56.066406 46.894531 55.785156 47.566406 C 55.554688 48.121094 55.492188 48.847656 55.660156 49.019531 C 55.714844 49.074219 57.054688 49.101562 58.636719 49.078125 L 61.511719 49.039062 Z M 24.710938 57.660156 C 23.246094 57.136719 22.515625 56.238281 22.289062 54.6875 C 22.144531 53.679688 22.101562 43.679688 22.238281 43.316406 C 22.3125 43.128906 22.609375 43.089844 24.03125 43.089844 L 25.738281 43.089844 L 25.738281 50.472656 C 25.738281 58.738281 25.832031 58.058594 24.710938 57.660156 Z M 29.386719 57.535156 C 29.351562 57.4375 29.335938 54.164062 29.355469 50.257812 L 29.394531 43.160156 L 33.480469 43.117188 C 36.921875 43.082031 37.707031 43.113281 38.460938 43.3125 C 39.585938 43.609375 40.476562 44.363281 40.953125 45.414062 C 41.292969 46.167969 41.296875 46.210938 41.339844 51.941406 L 41.382812 57.714844 L 37.925781 57.714844 L 37.917969 52.589844 C 37.910156 47.066406 37.867188 46.707031 37.175781 46.195312 C 36.851562 45.953125 36.503906 45.894531 35.152344 45.839844 C 32.652344 45.746094 32.90625 45.058594 32.90625 51.914062 L 32.90625 57.714844 L 31.179688 57.714844 C 29.933594 57.714844 29.4375 57.664062 29.386719 57.535156 Z M 46.984375 57.445312 C 46.042969 57.117188 45.222656 56.34375 44.78125 55.363281 L 44.449219 54.632812 L 44.449219 39.144531 L 46.203125 39.105469 L 47.953125 39.066406 L 47.992188 41.042969 L 48.035156 43.015625 L 50.757812 43.160156 L 50.757812 45.742188 L 49.539062 45.8125 C 48.871094 45.851562 48.238281 45.9375 48.140625 46 C 48.003906 46.089844 47.960938 47.058594 47.960938 50.042969 L 47.960938 53.96875 L 48.308594 54.375 C 48.613281 54.730469 48.777344 54.785156 49.707031 54.847656 L 50.757812 54.917969 L 50.757812 57.644531 L 49.253906 57.675781 C 48.089844 57.703125 47.574219 57.648438 46.984375 57.445312 Z M 69.96875 57.3125 C 68.898438 56.945312 68.386719 56.511719 67.9375 55.597656 L 67.535156 54.777344 L 67.535156 36.996094 L 71.046875 36.914062 L 71.046875 47.242188 C 71.046875 55.414062 71.011719 57.570312 70.867188 57.566406 C 70.769531 57.566406 70.367188 57.449219 69.96875 57.3125 Z M 73.917969 55.785156 L 73.917969 54 L 75.027344 53.183594 C 77.921875 51.058594 80.007812 48.15625 80.828125 45.113281 C 81.222656 43.644531 81.25 40.847656 80.882812 39.503906 C 79.535156 34.566406 75.585938 31.09375 69.246094 29.28125 C 63.125 27.527344 54.851562 27.414062 46.527344 28.976562 C 40.679688 30.074219 34.507812 32.039062 29.566406 34.382812 C 27.644531 35.292969 27.324219 35.324219 27.515625 34.566406 C 27.625 34.128906 28.164062 33.769531 30.683594 32.464844 C 42.847656 26.160156 58.390625 23.953125 69.972656 26.886719 C 74.054688 27.921875 77.121094 29.398438 79.761719 31.601562 C 81.929688 33.40625 84.085938 37.453125 84.578125 39.921875 C 84.664062 40.34375 84.476562 39.726562 84.566406 39.914062 C 84.824219 40.4375 84.773438 44.277344 84.496094 45.167969 C 84.375 45.5625 84.164062 46.273438 84.027344 46.746094 C 83.6875 47.9375 82.671875 50.054688 81.847656 51.292969 C 81 52.570312 78.757812 54.859375 77.492188 55.75 C 76.492188 56.453125 74.40625 57.570312 74.101562 57.570312 C 73.960938 57.570312 73.917969 57.140625 73.917969 55.785156 Z M 22.222656 40.476562 C 22.175781 40.296875 22.160156 39.570312 22.183594 38.859375 L 22.222656 37.570312 L 25.746094 37.488281 L 25.707031 39.105469 L 25.664062 40.722656 L 23.984375 40.765625 C 22.339844 40.804688 22.300781 40.796875 22.222656 40.476562 Z M 74.777344 38.359375 C 32.214844 69.664062 53.496094 54.011719 74.777344 38.359375 Z M 74.777344 38.359375 "/>
</g>
</svg>
