
<svg xmlns="http://www.w3.org/2000/svg" xmlns:xlink="http://www.w3.org/1999/xlink" width="512px" height="512px" viewBox="0 0 512 512" version="1.1">
<g id="surface1">
<path style="fill-rule:nonzero;fill:rgb(100%,100%,100%);fill-opacity:1;stroke-width:27.103765;stroke-linecap:butt;stroke-linejoin:miter;stroke:rgb(17.647059%,53.72549%,80.784314%);stroke-opacity:1;stroke-miterlimit:4;" d="M 88.214844 34.007812 L 423.785156 34.007812 C 453.722656 34.007812 477.992188 58.277344 477.992188 88.214844 L 477.992188 423.785156 C 477.992188 453.722656 453.722656 477.992188 423.785156 477.992188 L 88.214844 477.992188 C 58.277344 477.992188 34.007812 453.722656 34.007812 423.785156 L 34.007812 88.214844 C 34.007812 58.277344 58.277344 34.007812 88.214844 34.007812 Z M 88.214844 34.007812 "/>
<path style=" stroke:none;fill-rule:nonzero;fill:rgb(17.647059%,53.72549%,80.784314%);fill-opacity:1;" d="M 183.914062 392.289062 C 124.382812 386.570312 82.84375 363.84375 68.339844 329.054688 C 63.09375 316.46875 60.148438 298.316406 61.386719 286.210938 C 63.226562 268.226562 70.167969 250.6875 81.941406 234.269531 C 86.460938 227.96875 100.90625 212.21875 102.167969 212.21875 C 102.542969 212.21875 102.851562 213.980469 102.851562 216.128906 C 102.851562 219.546875 102.476562 220.484375 99.890625 223.585938 C 96.199219 228.011719 89.1875 238.785156 86.417969 244.289062 C 78.0625 260.898438 74.117188 280.621094 76.023438 296.214844 C 77.984375 312.246094 84.152344 325.140625 95.117188 336.113281 C 112.609375 353.628906 137.347656 363.042969 177.796875 367.578125 C 188.546875 368.78125 225.9375 368.769531 239.742188 367.554688 C 287.1875 363.378906 332.433594 351.347656 371.183594 332.597656 C 378.488281 329.0625 384.597656 326.167969 384.757812 326.167969 C 384.914062 326.167969 385.042969 332.359375 385.042969 339.925781 L 385.042969 353.683594 L 378.734375 356.859375 C 349.757812 371.441406 307.820312 383.800781 267.65625 389.597656 C 241.828125 393.320312 206.5 394.457031 183.914062 392.289062 Z M 305.230469 308.460938 C 299.828125 307.429688 292.613281 303.898438 288.886719 300.472656 C 281.324219 293.515625 277.640625 283.257812 277.644531 269.195312 C 277.648438 259.6875 278.675781 254.523438 281.953125 247.546875 C 291.308594 227.613281 320.808594 221.976562 335.910156 237.230469 C 342.933594 244.324219 346.804688 255.050781 346.804688 267.40625 L 346.804688 274.164062 L 322.78125 274.164062 C 309.566406 274.164062 298.207031 274.375 297.542969 274.628906 C 295.886719 275.265625 295.996094 279.851562 297.757812 283.730469 C 300.570312 289.921875 306.78125 293.546875 314.6875 293.609375 C 320.867188 293.664062 324.09375 292.777344 328.496094 289.816406 C 330.660156 288.359375 332.769531 287.164062 333.183594 287.164062 C 334.125 287.164062 343.746094 296.34375 343.746094 297.238281 C 343.746094 298.425781 338.851562 302.363281 334.394531 304.761719 C 326.828125 308.839844 315.027344 310.335938 305.230469 308.460938 Z M 327.878906 258.871094 C 327.003906 246.683594 315.691406 240.265625 304.867188 245.816406 C 301.316406 247.636719 299.019531 250.097656 297.515625 253.695312 C 296.285156 256.644531 295.953125 260.53125 296.859375 261.433594 C 297.148438 261.722656 304.289062 261.867188 312.726562 261.753906 L 328.070312 261.546875 Z M 131.800781 307.515625 C 123.980469 304.722656 120.078125 299.933594 118.882812 291.671875 C 118.105469 286.296875 117.867188 232.957031 118.609375 231.019531 C 118.996094 230.011719 120.582031 229.808594 128.167969 229.808594 L 137.265625 229.808594 L 137.265625 269.195312 C 137.265625 313.261719 137.777344 309.652344 131.800781 307.515625 Z M 156.734375 306.859375 C 156.53125 306.332031 156.457031 288.867188 156.566406 268.046875 L 156.765625 230.191406 L 178.5625 229.964844 C 196.910156 229.773438 201.109375 229.9375 205.121094 231 C 211.128906 232.59375 215.878906 236.597656 218.414062 242.207031 C 220.226562 246.226562 220.242188 246.457031 220.472656 277.03125 L 220.703125 307.8125 L 202.269531 307.8125 L 202.226562 280.472656 C 202.179688 251.019531 201.957031 249.109375 198.261719 246.371094 C 196.53125 245.089844 194.679688 244.765625 187.488281 244.488281 C 174.148438 243.976562 175.5 240.320312 175.5 276.867188 L 175.5 307.8125 L 166.300781 307.8125 C 159.644531 307.8125 157 307.550781 156.734375 306.859375 Z M 250.578125 306.371094 C 245.570312 304.625 241.191406 300.492188 238.832031 295.277344 L 237.066406 291.371094 L 237.066406 208.777344 L 246.410156 208.5625 L 255.757812 208.347656 L 255.96875 218.886719 L 256.183594 229.425781 L 270.714844 230.191406 L 270.714844 243.957031 L 264.214844 244.339844 C 260.636719 244.550781 257.28125 245 256.757812 245.339844 C 256.03125 245.8125 255.800781 250.988281 255.800781 266.902344 L 255.800781 287.84375 L 257.644531 289.992188 C 259.277344 291.886719 260.136719 292.179688 265.101562 292.519531 L 270.714844 292.902344 L 270.714844 307.433594 L 262.683594 307.609375 C 256.480469 307.75 253.726562 307.464844 250.578125 306.371094 Z M 373.175781 305.671875 C 367.464844 303.699219 364.734375 301.386719 362.339844 296.515625 L 360.191406 292.136719 L 360.191406 197.308594 L 378.925781 196.878906 L 378.925781 251.964844 C 378.925781 295.535156 378.726562 307.042969 377.96875 307.023438 C 377.445312 307.011719 375.285156 306.402344 373.175781 305.671875 Z M 394.222656 297.519531 L 394.222656 287.992188 L 400.148438 283.640625 C 415.582031 272.320312 426.71875 256.824219 431.078125 240.613281 C 433.1875 232.777344 433.335938 217.859375 431.378906 210.691406 C 424.195312 184.355469 403.121094 165.839844 369.3125 156.15625 C 336.667969 146.804688 292.539062 146.214844 248.152344 154.539062 C 216.953125 160.390625 184.03125 170.882812 157.695312 183.371094 C 147.429688 188.238281 145.730469 188.394531 146.742188 184.363281 C 147.332031 182.011719 150.210938 180.101562 163.648438 173.136719 C 228.519531 139.511719 311.410156 127.746094 373.191406 143.398438 C 394.96875 148.914062 411.304688 156.78125 425.40625 168.539062 C 436.953125 178.171875 448.457031 199.753906 451.09375 212.917969 C 451.542969 215.171875 450.542969 211.882812 451.03125 212.878906 C 452.40625 215.65625 452.125 236.136719 450.648438 240.898438 C 449.992188 243 448.871094 246.785156 448.152344 249.3125 C 446.34375 255.65625 440.921875 266.96875 436.523438 273.570312 C 431.992188 280.367188 420.039062 292.59375 413.289062 297.339844 C 407.96875 301.074219 396.839844 307.050781 395.199219 307.050781 C 394.457031 307.050781 394.222656 304.742188 394.222656 297.519531 Z M 118.515625 215.875 C 118.273438 214.917969 118.179688 211.035156 118.304688 207.25 L 118.527344 200.367188 L 137.316406 199.9375 L 137.097656 208.5625 L 136.882812 217.191406 L 127.917969 217.40625 C 119.136719 217.617188 118.941406 217.585938 118.515625 215.875 Z M 398.808594 204.574219 C 171.820312 371.542969 285.316406 288.058594 398.808594 204.574219 Z M 398.808594 204.574219 "/>
</g>
</svg>
